<?xml version="1.0" standalone="no"?>
<!DOCTYPE svg PUBLIC "-//W3C//DTD SVG 1.1//EN" "http://www.w3.org/Graphics/SVG/1.1/DTD/svg11.dtd" >
<svg xmlns="http://www.w3.org/2000/svg" xmlns:xlink="http://www.w3.org/1999/xlink" version="1.1">
<metadata>
Created by FontForge 20170731 at Fri Sep 12 16:07:05 2008
 By Aleksey,,,
Copyright (C) 2001, 2008 Hoefler &#38; Frere-Jones. http://www.typography.com
</metadata>
<defs>
<font id="GothamXNarrow-Thin" horiz-adv-x="508" >
  <font-face 
    font-family="Gotham XNarrow Thin"
    font-weight="250"
    font-stretch="condensed"
    units-per-em="1000"
    panose-1="0 0 0 0 0 0 0 0 0 0"
    ascent="800"
    descent="-200"
    x-height="516"
    cap-height="700"
    bbox="-19 -200 833 927"
    underline-thickness="50"
    underline-position="-200"
    unicode-range="U+0020-FB04"
  />
<missing-glyph 
d="M4 -200v1000h500v-1000h-500zM75 750l179 -390l179 390h-358zM54 -76l172 376l-172 376v-752zM454 676l-172 -376l172 -376v752zM254 240l-179 -390h358z" />
    <glyph glyph-name="f_f" unicode="ff" horiz-adv-x="463" 
d="M90 0v497h-60v19h60v70q0 70 32 102q26 26 72 26q17 0 34 -5v-20q-15 5 -34 5q-82 0 -82 -109v-69h112v-19h-112v-497h-22zM321 0v497h-61v19h61v70q0 71 32 102q25 26 71 26q19 0 34 -5v-20q-15 5 -34 5q-82 0 -82 -109v-69h112v-19h-112v-497h-21z" />
    <glyph glyph-name="fi" unicode="fi" horiz-adv-x="395" 
d="M90 0v497h-60v19h60v70q0 70 32 102q26 26 72 26q17 0 34 -5v-20q-15 5 -34 5q-82 0 -82 -109v-69h112v-19h-112v-497h-22zM302 0v516h21v-516h-21zM299 648v57h27v-57h-27z" />
    <glyph glyph-name="fl" unicode="fl" horiz-adv-x="395" 
d="M90 0v497h-60v19h60v70q0 70 32 102q26 26 72 26q17 0 34 -5v-20q-15 5 -34 5q-82 0 -82 -109v-69h112v-19h-112v-497h-22zM302 0v713h21v-713h-21z" />
    <glyph glyph-name="f_f_i" unicode="ffi" horiz-adv-x="625" 
d="M90 0v497h-60v19h60v70q0 70 32 102q26 26 72 26q17 0 34 -5v-20q-15 5 -34 5q-82 0 -82 -109v-69h112v-19h-112v-497h-22zM321 0v497h-61v19h61v70q0 71 32 102q25 26 71 26q19 0 34 -5v-20q-15 5 -34 5q-82 0 -82 -109v-69h112v-19h-112v-497h-21zM533 0v516h21v-516
h-21zM530 648v57h26v-57h-26z" />
    <glyph glyph-name="f_f_l" unicode="ffl" horiz-adv-x="625" 
d="M90 0v497h-60v19h60v70q0 70 32 102q26 26 72 26q17 0 34 -5v-20q-15 5 -34 5q-82 0 -82 -109v-69h112v-19h-112v-497h-22zM321 0v497h-61v19h61v70q0 71 32 102q25 26 71 26q19 0 34 -5v-20q-15 5 -34 5q-82 0 -82 -109v-69h112v-19h-112v-497h-21zM533 0v713h21v-713
h-21z" />
    <glyph glyph-name=".notdef" 
d="M4 -200v1000h500v-1000h-500zM75 750l179 -390l179 390h-358zM54 -76l172 376l-172 376v-752zM454 676l-172 -376l172 -376v752zM254 240l-179 -390h358z" />
    <glyph glyph-name=".null" horiz-adv-x="0" 
 />
    <glyph glyph-name="nonmarkingreturn" horiz-adv-x="333" 
 />
    <glyph glyph-name="space" unicode=" " horiz-adv-x="190" 
 />
    <glyph glyph-name="exclam" unicode="!" horiz-adv-x="159" 
d="M75 183l-6 435v82h22v-82l-6 -435h-10zM64 0v51h31v-51h-31z" />
    <glyph glyph-name="quotedbl" unicode="&#x22;" horiz-adv-x="244" 
d="M165 454l11 246h25v-7l-24 -239h-12zM53 454l11 246h25v-7l-24 -239h-12z" />
    <glyph glyph-name="numbersign" unicode="#" horiz-adv-x="467" 
d="M406 221v-20h-91l-21 -201h-19l21 201h-161l-21 -201h-19l21 201h-82v20h84l28 264h-86v19h88l21 196h19l-21 -196h161l21 196h18l-21 -196h86v-19h-88l-27 -264h89zM165 485l-28 -264h161l28 264h-161z" />
    <glyph glyph-name="dollar" unicode="$" horiz-adv-x="424" 
d="M364 645l-13 -17q-61 53 -129 55v-313q84 -44 119 -89t35 -106v-2q0 -72 -43.5 -121.5t-110.5 -54.5v-96h-19v95q-105 2 -172 82l15 15q65 -76 157 -77v341q-79 41 -114.5 82.5t-35.5 104.5v2q0 63 42 107t108 49v63h19v-62q74 -1 142 -58zM354 173q0 55 -30 95.5
t-102 77.5v-330q57 5 94.5 48t37.5 108v1zM75 544q0 -56 31.5 -93t96.5 -70v301q-57 -5 -92.5 -42t-35.5 -93v-3z" />
    <glyph glyph-name="percent" unicode="%" horiz-adv-x="588" 
d="M153 365q-50 0 -82 46.5t-32 121.5v6q0 74 32 120.5t82 46.5t82 -46.5t32 -120.5v-6q0 -75 -32 -121.5t-82 -46.5zM153 688q-41 0 -67.5 -40.5t-26.5 -108.5v-6q0 -69 27 -109.5t67 -40.5q41 0 67.5 40t26.5 109v6q0 69 -27 109.5t-67 40.5zM286 353l186 347h20
l-191 -355l-185 -345h-20zM435 -6q-50 0 -82 46.5t-32 120.5v6q0 75 32 121.5t82 46.5t82 -46.5t32 -121.5v-6q0 -74 -32 -120.5t-82 -46.5zM435 12q41 0 67.5 40t26.5 109v6q0 69 -27 109.5t-67 40.5q-41 0 -67.5 -40.5t-26.5 -108.5v-6q0 -69 27 -109.5t67 -40.5z" />
    <glyph glyph-name="ampersand" unicode="&#x26;" horiz-adv-x="485" 
d="M444 -8l-81 119q-68 -119 -170 -119q-69 0 -111.5 50t-42.5 124v4q0 117 138 220q-78 114 -78 183v2q0 55 35.5 94.5t89.5 39.5q53 0 85.5 -38.5t32.5 -90.5v-2q0 -53 -33.5 -98.5t-104.5 -93.5l158 -234q34 74 57 187l20 -5q-26 -127 -64 -202l87 -128zM193 403
q64 42 95.5 83.5t31.5 90.5v2q0 45 -27 77.5t-69 32.5q-45 0 -74 -33t-29 -80v-2q0 -64 72 -171zM193 12q93 0 158 118l-164 244q-126 -95 -126 -202v-3q0 -68 36 -112.5t96 -44.5z" />
    <glyph glyph-name="quotesingle" unicode="'" horiz-adv-x="125" 
d="M53 454l11 246h25v-7l-24 -239h-12z" />
    <glyph glyph-name="parenleft" unicode="(" horiz-adv-x="277" 
d="M239 -125q-189 143 -189 414t189 414l12 -16q-179 -138 -179 -398t179 -398z" />
    <glyph glyph-name="parenright" unicode=")" horiz-adv-x="277" 
d="M38 -125l-12 16q179 138 179 398t-179 398l12 16q189 -143 189 -414t-189 -414z" />
    <glyph glyph-name="asterisk" unicode="*" horiz-adv-x="321" 
d="M149 423l6 130l-95 -64l-12 19l101 55l-102 55l12 20l96 -65l-6 129h22l-6 -129l96 65l12 -20l-102 -55l102 -55l-12 -19l-96 64l6 -130h-22z" />
    <glyph glyph-name="plus" unicode="+" horiz-adv-x="420" 
d="M200 178v164h-154v20h154v164h20v-164h154v-20h-154v-164h-20z" />
    <glyph glyph-name="comma" unicode="," horiz-adv-x="117" 
d="M39 -67l-7 13q25 14 24 54h-14v51h31v-51q0 -49 -34 -67z" />
    <glyph glyph-name="hyphen" unicode="-" horiz-adv-x="295" 
d="M51 286v20h193v-20h-193z" />
    <glyph glyph-name="period" unicode="." horiz-adv-x="120" 
d="M45 0v51h30v-51h-30z" />
    <glyph glyph-name="slash" unicode="/" horiz-adv-x="321" 
d="M-4 -107l296 884h21l-296 -884h-21z" />
    <glyph glyph-name="zero" unicode="0" horiz-adv-x="477" 
d="M238 -9q-86 0 -136 92.5t-50 259.5v12q0 168 50 261t136 93q87 0 136.5 -93t49.5 -261v-12q0 -167 -49.5 -259.5t-136.5 -92.5zM239 11q75 0 119 89t44 243v12q0 154 -44.5 244t-119.5 90t-119.5 -89.5t-44.5 -244.5v-11q0 -153 45 -243t120 -90z" />
    <glyph glyph-name="one" unicode="1" horiz-adv-x="228" 
d="M120 0v675l-92 -48l-3 22l98 53h18v-702h-21z" />
    <glyph glyph-name="two" unicode="2" horiz-adv-x="400" 
d="M32 0v14l214 333q44 70 61.5 113t17.5 86q0 65 -35.5 104t-93.5 39q-84 0 -136 -88l-17 9q56 99 153 99q68 0 109.5 -45t41.5 -115v-3q0 -48 -18.5 -93.5t-68.5 -122.5l-199 -310h292v-20h-321z" />
    <glyph glyph-name="three" unicode="3" horiz-adv-x="374" 
d="M158 -6q-77 0 -139 60l15 16q52 -56 125 -56q65 0 110 49.5t45 125.5v1q0 79 -49 123.5t-132 50.5h-8l-2 14l184 303h-273v19h297v-17l-182 -301q81 -8 134 -56t53 -134v-2q0 -87 -50.5 -141.5t-127.5 -54.5z" />
    <glyph glyph-name="four" unicode="4" horiz-adv-x="423" 
d="M303 0v173h-273l-2 15l276 517h19v-512h73v-20h-73v-173h-20zM53 193h250v467z" />
    <glyph glyph-name="five" unicode="5" horiz-adv-x="401" 
d="M177 -8q-71 0 -131 56l15 16q56 -52 117 -52q68 0 113 56t45 145v1q0 86 -43.5 131.5t-106.5 45.5q-56 0 -108 -27l-14 9l16 327h247v-20h-228l-14 -291q53 23 103 23q72 0 121 -51.5t49 -145.5v-1q0 -99 -50.5 -160.5t-130.5 -61.5z" />
    <glyph glyph-name="six" unicode="6" horiz-adv-x="435" 
d="M228 -10q-62 0 -104 42q-71 71 -71 270v22q0 184 52.5 283.5t151.5 99.5q60 0 106 -40l-14 -17q-42 37 -92 37q-88 0 -135.5 -95t-47.5 -267q0 -3 -0.5 -15.5t-0.5 -19.5q17 69 61 102t95 33q71 0 117 -54t46 -151v-3q0 -99 -45.5 -163t-118.5 -64zM226 10q66 0 105 60
t39 146v3q0 91 -40 138.5t-102 47.5q-60 0 -103 -48t-43 -138v-3q0 -86 39 -146t105 -60z" />
    <glyph glyph-name="seven" unicode="7" horiz-adv-x="369" 
d="M96 0l218 680h-275v20h297v-16l-218 -684h-22z" />
    <glyph glyph-name="eight" unicode="8" horiz-adv-x="421" 
d="M211 -9q-74 0 -122.5 51t-48.5 136v5q0 69 34.5 115t89.5 63q-46 15 -76.5 60.5t-30.5 106.5v4q0 82 44 129.5t110 47.5t110 -47.5t44 -129.5v-4q0 -61 -30.5 -106.5t-76.5 -60.5q55 -17 89.5 -63t34.5 -115v-5q0 -85 -48.5 -136t-122.5 -51zM211 371q57 0 95 48t38 109
v3q0 73 -37.5 115.5t-95.5 42.5t-95.5 -42.5t-37.5 -115.5v-3q0 -61 38 -109t95 -48zM211 11q66 0 108 46.5t42 121.5v3q0 72 -43 120.5t-107 48.5t-107 -48.5t-43 -120.5v-3q0 -75 42 -121.5t108 -46.5z" />
    <glyph glyph-name="nine" unicode="9" horiz-adv-x="429" 
d="M172 14q90 0 138 94.5t48 267.5q0 18 1 29q-17 -68 -61.5 -101t-94.5 -33q-71 0 -117 54t-46 154v3q0 100 45.5 164.5t118.5 64.5q62 0 104 -42q71 -71 71 -270v-22q0 -185 -53 -284t-154 -99q-60 0 -111 44l14 17q46 -41 97 -41zM204 291q60 0 103 49t43 140v3
q0 87 -39 147.5t-105 60.5t-105 -60.5t-39 -147.5v-3q0 -93 40 -141t102 -48z" />
    <glyph glyph-name="colon" unicode=":" horiz-adv-x="126" 
d="M48 445v50h30v-50h-30zM48 0v51h30v-51h-30z" />
    <glyph glyph-name="semicolon" unicode=";" horiz-adv-x="121" 
d="M43 445v50h31v-50h-31zM39 -67l-7 13q25 14 24 54h-13v51h31v-51q0 -50 -35 -67z" />
    <glyph glyph-name="less" unicode="&#x3c;" horiz-adv-x="429" 
d="M363 169l-314 177v12l314 177v-23l-285 -160l285 -160v-23z" />
    <glyph glyph-name="equal" unicode="=" horiz-adv-x="420" 
d="M56 426v21h308v-21h-308zM56 257v21h308v-21h-308z" />
    <glyph glyph-name="greater" unicode="&#x3e;" horiz-adv-x="429" 
d="M66 169v23l285 160l-285 160v23l313 -177v-12z" />
    <glyph glyph-name="question" unicode="?" horiz-adv-x="360" 
d="M146 183l-6 168l3 5q73 20 114.5 68t41.5 112v4q0 66 -40 105.5t-97 39.5q-74 0 -127 -62l-14 15q59 68 142 68q67 0 112.5 -46t45.5 -118v-5q0 -69 -42 -119.5t-115 -75.5l-8 -159h-10zM138 0v51h30v-51h-30z" />
    <glyph glyph-name="at" unicode="@" horiz-adv-x="733" 
d="M363 -142q-137 0 -226 98.5t-89 271.5q0 127 42.5 236t123.5 177t185 68q129 0 207.5 -97.5t78.5 -240.5q0 -120 -44 -208t-106 -88q-43 0 -64.5 33t-16.5 80q-24 -49 -60 -82t-80 -33q-50 0 -78.5 39t-28.5 106q0 111 52.5 196t123.5 85q41 0 68.5 -31t35.5 -80l17 92
l20 -4l-46 -239q-6 -32 -6 -63q0 -34 15.5 -57t49.5 -23q52 0 91 84t39 192q0 134 -73.5 228t-195.5 94q-98 0 -175.5 -68.5t-116.5 -172.5t-39 -220q0 -165 84 -260.5t212 -95.5q94 0 179 53l10 -15q-89 -55 -189 -55zM318 95q42 0 76 34q40 40 59.5 103t19.5 113
q0 55 -24.5 94.5t-64.5 39.5q-41 0 -76 -35q-37 -37 -58.5 -98t-21.5 -123q0 -61 23 -94.5t67 -33.5z" />
    <glyph glyph-name="A" unicode="A" horiz-adv-x="511" 
d="M34 0l212 705h20l211 -705h-22l-63 211h-273l-63 -211h-22zM125 231h261l-130 438z" />
    <glyph glyph-name="B" unicode="B" horiz-adv-x="481" 
d="M75 0v700h134q107 0 161 -54q46 -46 46 -122v-2q0 -64 -37.5 -109t-99.5 -59q72 -13 113.5 -59.5t41.5 -112.5v-2q0 -83 -57 -131.5t-167 -48.5h-135zM394 522v2q0 74 -47.5 115t-138.5 41h-111v-317h115q85 0 133.5 43.5t48.5 115.5zM412 182q0 72 -51 116.5t-141 44.5
h-123v-323h112q101 0 152 42t51 118v2z" />
    <glyph glyph-name="C" unicode="C" horiz-adv-x="451" 
d="M274 -6q-100 0 -161 92.5t-61 258.5v9q0 161 66 256.5t163 95.5q76 0 134 -56l-14 -16q-54 52 -120 52q-87 0 -147 -91.5t-60 -240.5v-8q0 -157 57 -244.5t144 -87.5q64 0 129 61l14 -15q-68 -66 -144 -66z" />
    <glyph glyph-name="D" unicode="D" horiz-adv-x="512" 
d="M75 0v700h101q132 0 208 -91.5t76 -252.5v-12q0 -160 -76 -252t-211 -92h-98zM175 680h-78v-660h75q127 0 196.5 86.5t69.5 237.5v12q0 150 -70 237t-193 87z" />
    <glyph glyph-name="E" unicode="E" horiz-adv-x="429" 
d="M75 0v700h307v-20h-285v-317h260v-20h-260v-323h289v-20h-311z" />
    <glyph glyph-name="F" unicode="F" horiz-adv-x="400" 
d="M75 0v700h300v-20h-278v-326h253v-20h-253v-334h-22z" />
    <glyph glyph-name="G" unicode="G" horiz-adv-x="505" 
d="M300 -9q-106 0 -177 91t-71 263v9q0 162 71 258.5t173 96.5q76 0 139 -50l-13 -18q-59 48 -127 48q-91 0 -156 -92.5t-65 -242.5v-8q0 -161 65.5 -248t162.5 -87q34 0 67 12t52 29v275h-159v21h180v-307q-65 -50 -142 -50z" />
    <glyph glyph-name="H" unicode="H" horiz-adv-x="520" 
d="M75 0v700h22v-337h326v337h22v-700h-22v343h-326v-343h-22z" />
    <glyph glyph-name="I" unicode="I" horiz-adv-x="183" 
d="M81 0v700h22v-700h-22z" />
    <glyph glyph-name="J" unicode="J" horiz-adv-x="318" 
d="M128 -7q-67 0 -107 61l17 12q38 -53 91 -53q44 0 70.5 31t26.5 93v563h22v-552q0 -85 -38 -123q-32 -32 -82 -32z" />
    <glyph glyph-name="K" unicode="K" horiz-adv-x="456" 
d="M75 0v700h22v-441l294 441h25l-208 -310l222 -390h-25l-211 370l-97 -145v-225h-22z" />
    <glyph glyph-name="L" unicode="L" horiz-adv-x="378" 
d="M75 0v700h22v-680h262v-20h-284z" />
    <glyph glyph-name="M" unicode="M" horiz-adv-x="590" 
d="M75 0v700h23l197 -437l197 437h23v-700h-21v654l-198 -437h-2l-198 437v-654h-21z" />
    <glyph glyph-name="N" unicode="N" horiz-adv-x="531" 
d="M75 0v700h20l340 -646v646h21v-700h-16l-344 655v-655h-21z" />
    <glyph glyph-name="O" unicode="O" horiz-adv-x="542" 
d="M271 -9q-97 0 -158 96.5t-61 258.5v8q0 162 61 258.5t158 96.5t158 -96.5t61 -258.5v-8q0 -162 -61 -258.5t-158 -96.5zM271 11q87 0 142 92t55 242v9q0 149 -55.5 242t-141.5 93t-141.5 -92.5t-55.5 -241.5v-9q0 -149 55.5 -242t141.5 -93z" />
    <glyph glyph-name="P" unicode="P" horiz-adv-x="451" 
d="M75 0v700h116q105 0 166 -58t61 -155q0 -99 -61.5 -158t-169.5 -59h-90v-270h-22zM97 290h90q96 0 152.5 53t56.5 143t-56.5 142t-150.5 52h-92v-390z" />
    <glyph glyph-name="Q" unicode="Q" horiz-adv-x="549" 
d="M492 -3l-14 -13l-71 75q-56 -68 -136 -68q-97 0 -158 96.5t-61 258.5v8q0 162 61 258.5t158 96.5t158 -96.5t61 -258.5v-8q0 -172 -71 -272zM271 11q72 0 123 62l-102 109l14 13l99 -106q63 94 63 256v9q0 149 -55.5 242t-141.5 93t-141.5 -92.5t-55.5 -241.5v-9
q0 -149 55.5 -242t141.5 -93z" />
    <glyph glyph-name="R" unicode="R" horiz-adv-x="484" 
d="M75 0v700h130q113 0 172 -59q52 -52 52 -140q0 -165 -164 -199l173 -302h-25l-171 299q-27 -3 -57 -3h-88v-296h-22zM97 316h94q216 0 216 185q0 85 -54 132t-149 47h-107v-364z" />
    <glyph glyph-name="S" unicode="S" horiz-adv-x="428" 
d="M209 -8q-108 0 -178 91l17 14q65 -85 162 -85q65 0 107.5 41.5t42.5 105.5v2q0 56 -32 98t-120 94q-84 50 -117.5 92.5t-33.5 104.5v2q0 66 47.5 111t117.5 45q87 0 152 -69l-15 -16q-61 65 -138 65q-62 0 -102 -39.5t-40 -95.5v-2q0 -58 31 -95.5t113 -87.5
q92 -56 125.5 -100.5t33.5 -104.5v-2q0 -74 -48.5 -121.5t-124.5 -47.5z" />
    <glyph glyph-name="T" unicode="T" horiz-adv-x="377" 
d="M178 0v680h-161v20h343v-20h-160v-680h-22z" />
    <glyph glyph-name="U" unicode="U" horiz-adv-x="514" 
d="M256 -8q-87 0 -137 60.5t-50 169.5v478h22v-478q0 -101 45 -155.5t121 -54.5q77 0 121.5 54t44.5 155v479h22v-478q0 -109 -50.5 -169.5t-138.5 -60.5z" />
    <glyph glyph-name="V" unicode="V" horiz-adv-x="494" 
d="M237 -5l-203 705h22l191 -666l191 666h22l-203 -705h-20z" />
    <glyph glyph-name="W" unicode="W" horiz-adv-x="734" 
d="M194 -5l-154 705h22l142 -661l154 662h18l154 -662l142 661h22l-154 -705h-20l-153 661l-153 -661h-20z" />
    <glyph glyph-name="X" unicode="X" horiz-adv-x="449" 
d="M389 700h24l-175 -343l182 -357h-24l-172 341l-171 -341h-24l182 357l-175 343h24l164 -326z" />
    <glyph glyph-name="Y" unicode="Y" horiz-adv-x="439" 
d="M209 0v299l-192 401h23l180 -379l180 379h23l-192 -401v-299h-22z" />
    <glyph glyph-name="Z" unicode="Z" horiz-adv-x="436" 
d="M44 0v15l320 665h-307v20h332v-15l-320 -665h319v-20h-344z" />
    <glyph glyph-name="bracketleft" unicode="[" horiz-adv-x="295" 
d="M88 -130v830h163v-17h-141v-796h141v-17h-163z" />
    <glyph glyph-name="backslash" unicode="\" horiz-adv-x="321" 
d="M304 -107l-296 884h21l296 -884h-21z" />
    <glyph glyph-name="bracketright" unicode="]" horiz-adv-x="295" 
d="M44 -130v17h142v796h-142v17h163v-830h-163z" />
    <glyph glyph-name="asciicircum" unicode="^" horiz-adv-x="370" 
d="M82 521l96 170h14l94 -170h-15l-87 146l-86 -146h-16z" />
    <glyph glyph-name="underscore" unicode="_" horiz-adv-x="483" 
d="M2 -148v16h479v-16h-479z" />
    <glyph glyph-name="grave" unicode="`" 
d="M291 581l-84 106l23 11l72 -117h-11z" />
    <glyph glyph-name="a" unicode="a" horiz-adv-x="397" 
d="M171 -8q-60 0 -96.5 42t-36.5 115v2q0 77 41.5 121t116.5 44q59 0 119 -28v79q0 62 -31.5 98.5t-91.5 36.5q-58 0 -111 -33l-10 18q57 35 121 35q67 0 104 -37q40 -40 40 -114v-371h-21v100q-16 -46 -53 -77t-91 -31zM173 12q60 0 101 50t41 114v91q-60 29 -119 29
q-65 0 -100.5 -38t-35.5 -106v-3q0 -63 30.5 -100t82.5 -37z" />
    <glyph glyph-name="b" unicode="b" horiz-adv-x="446" 
d="M237 -8q-59 0 -97 44.5t-52 99.5v-136h-21v713h21v-333q14 55 52 99.5t97 44.5q74 0 120 -74t46 -189v-6q0 -116 -45.5 -189.5t-120.5 -73.5zM236 12q65 0 105 69t40 174v6q0 104 -40 173.5t-105 69.5t-107 -70.5t-42 -172.5v-6q0 -101 42.5 -172t106.5 -71z" />
    <glyph glyph-name="c" unicode="c" horiz-adv-x="353" 
d="M214 -8q-76 0 -123.5 69t-47.5 194v6q0 119 51 191t124 72q60 0 104 -48l-14 -16q-41 43 -91 43q-64 0 -108 -66.5t-44 -175.5v-6q0 -114 42 -178t108 -64q48 0 94 46l14 -15q-52 -52 -109 -52z" />
    <glyph glyph-name="d" unicode="d" horiz-adv-x="446" 
d="M209 -8q-73 0 -119 74t-46 189v6q0 115 46 189t119 74q60 0 98 -44.5t51 -99.5v333h21v-713h-21v136q-13 -55 -51 -99.5t-98 -44.5zM210 12q65 0 107 70.5t42 172.5v6q0 102 -42 172.5t-107 70.5t-104.5 -69t-39.5 -174v-6q0 -105 39.5 -174t104.5 -69z" />
    <glyph glyph-name="e" unicode="e" horiz-adv-x="405" 
d="M223 -8q-77 0 -128.5 70t-51.5 193v3q0 123 48 194.5t117 71.5q70 0 113.5 -71t43.5 -186v-16h-300q1 -111 46.5 -175t112.5 -64q64 0 116 49l14 -15q-59 -54 -131 -54zM65 271h278q-1 100 -38 166.5t-98 66.5q-58 0 -99 -64.5t-43 -168.5z" />
    <glyph glyph-name="f" unicode="f" horiz-adv-x="233" 
d="M90 0v497h-60v19h60v70q0 70 32 102q26 26 72 26q17 0 34 -5v-20q-15 5 -34 5q-82 0 -82 -109v-69h112v-19h-112v-497h-22z" />
    <glyph glyph-name="g" unicode="g" horiz-adv-x="442" 
d="M208 -139q-76 0 -144 37l10 20q62 -37 134 -37q146 0 146 153v120q-16 -47 -53.5 -87t-93.5 -40q-71 0 -117 70.5t-46 174.5v6q0 104 46 175t117 71q39 0 72 -23.5t49 -49.5t26 -55v120h21v-481q0 -88 -45 -133q-41 -41 -122 -41zM208 47q62 0 104.5 67t42.5 158v6
q0 91 -42.5 158.5t-104.5 67.5t-102 -66t-40 -160v-5q0 -94 40 -160t102 -66z" />
    <glyph glyph-name="h" unicode="h" horiz-adv-x="430" 
d="M67 0v713h21v-300q13 45 49.5 78t89.5 33q66 0 104 -49t38 -136v-339h-21v339q0 77 -32 121t-91 44q-56 0 -96.5 -48.5t-40.5 -120.5v-335h-21z" />
    <glyph glyph-name="i" unicode="i" horiz-adv-x="164" 
d="M69 648v57h26v-57h-26zM72 0v516h21v-516h-21z" />
    <glyph glyph-name="j" unicode="j" horiz-adv-x="165" 
d="M69 648v57h27v-57h-27zM15 -142q-17 0 -32 5v20q17 -5 32 -5q57 0 57 79v559h21v-560q0 -98 -78 -98z" />
    <glyph glyph-name="k" unicode="k" horiz-adv-x="367" 
d="M67 0v713h21v-530l219 333h24l-146 -219l158 -297h-23l-148 278l-84 -128v-150h-21z" />
    <glyph glyph-name="l" unicode="l" horiz-adv-x="164" 
d="M72 0v713h21v-713h-21z" />
    <glyph glyph-name="m" unicode="m" horiz-adv-x="677" 
d="M67 0v516h21v-98q12 44 45.5 75t83.5 31q102 0 126 -112q13 46 48.5 79t87.5 33q63 0 99 -45.5t36 -133.5v-345h-21v344q0 78 -30.5 119t-84.5 41t-90.5 -45.5t-36.5 -117.5v-341h-21v344q0 78 -30.5 119t-84.5 41q-53 0 -90 -46t-37 -117v-341h-21z" />
    <glyph glyph-name="n" unicode="n" horiz-adv-x="430" 
d="M67 0v516h21v-103q13 45 49.5 78t89.5 33q66 0 104 -49t38 -136v-339h-21v339q0 77 -32 121t-91 44q-56 0 -96.5 -48.5t-40.5 -120.5v-335h-21z" />
    <glyph glyph-name="o" unicode="o" horiz-adv-x="432" 
d="M216 -8q-75 0 -124.5 73.5t-49.5 189.5v6q0 116 49.5 189.5t124.5 73.5t124.5 -73.5t49.5 -189.5v-6q0 -116 -49.5 -189.5t-124.5 -73.5zM216 12q65 0 108.5 69.5t43.5 173.5v6q0 104 -43.5 173.5t-108.5 69.5t-108.5 -69.5t-43.5 -173.5v-6q0 -104 43.5 -173.5
t108.5 -69.5z" />
    <glyph glyph-name="p" unicode="p" horiz-adv-x="446" 
d="M67 -138v654h21v-136q14 55 52 99.5t97 44.5q74 0 120 -74t46 -189v-6q0 -115 -46 -189t-120 -74q-59 0 -97 44.5t-52 99.5v-274h-21zM236 12q65 0 105 69t40 174v6q0 104 -40 173.5t-105 69.5t-107 -70.5t-42 -172.5v-6q0 -101 42.5 -172t106.5 -71z" />
    <glyph glyph-name="q" unicode="q" horiz-adv-x="446" 
d="M358 -138v274q-13 -55 -51 -99.5t-98 -44.5q-73 0 -119 74t-46 189v6q0 115 46 189t119 74q60 0 98 -44.5t51 -99.5v136h21v-654h-21zM210 12q65 0 107 70.5t42 172.5v6q0 102 -42 172.5t-107 70.5t-104.5 -69t-39.5 -174v-6q0 -105 39.5 -174t104.5 -69z" />
    <glyph glyph-name="r" unicode="r" horiz-adv-x="243" 
d="M67 0v516h21v-108q15 49 51.5 82.5t89.5 32.5v-22h-3q-58 0 -98 -50.5t-40 -123.5v-327h-21z" />
    <glyph glyph-name="s" unicode="s" horiz-adv-x="347" 
d="M168 -6q-79 0 -143 61l14 15q59 -56 131 -56q51 0 84.5 31t33.5 75v1q0 42 -24.5 71t-96.5 66q-72 38 -98.5 70t-26.5 74v1q0 51 37 85.5t97 34.5q69 0 128 -54l-14 -15q-51 49 -115 49q-51 0 -81 -28.5t-30 -71.5v-1q0 -37 24.5 -64t91.5 -63q76 -41 103 -73t27 -81v-1
q0 -52 -40 -89t-102 -37z" />
    <glyph glyph-name="t" unicode="t" horiz-adv-x="252" 
d="M179 -5q-95 0 -95 104v398h-57v19h57v157h22v-157h112v-19h-112v-396q0 -86 73 -86q22 0 40 7v-20q-18 -7 -40 -7z" />
    <glyph glyph-name="u" unicode="u" horiz-adv-x="430" 
d="M203 -8q-66 0 -103.5 49t-37.5 136v339h21v-339q0 -77 32 -121t90 -44q56 0 96.5 48.5t40.5 120.5v335h21v-516h-21v103q-12 -45 -48.5 -78t-90.5 -33z" />
    <glyph glyph-name="v" unicode="v" horiz-adv-x="390" 
d="M186 -3l-157 519h22l144 -483l144 483h22l-157 -519h-18z" />
    <glyph glyph-name="w" unicode="w" horiz-adv-x="578" 
d="M157 -3l-125 519h22l111 -475l116 476h16l116 -476l111 475h22l-125 -519h-17l-115 470l-115 -470h-17z" />
    <glyph glyph-name="x" unicode="x" horiz-adv-x="369" 
d="M56 516l127 -234l128 234h23l-139 -252l146 -264h-23l-135 246l-134 -246h-23l145 264l-138 252h23z" />
    <glyph glyph-name="y" unicode="y" horiz-adv-x="393" 
d="M198 42l145 474h22l-155 -506q-27 -89 -54.5 -120.5t-64.5 -31.5q-32 0 -60 19l10 19q25 -18 50 -18q30 0 52 27t45 104l-158 507h22z" />
    <glyph glyph-name="z" unicode="z" horiz-adv-x="338" 
d="M33 0v11l246 486h-235v19h260v-11l-246 -486h246v-19h-271z" />
    <glyph glyph-name="braceleft" unicode="{" horiz-adv-x="313" 
d="M272 -139q-79 12 -109.5 47.5t-30.5 98.5q0 25 14.5 77.5t14.5 81.5q0 46 -29.5 79t-81.5 33h-12v20h12q52 0 81.5 33t29.5 79q0 29 -14.5 81.5t-14.5 77.5q0 63 30.5 98.5t109.5 47.5l3 -19q-68 -9 -95 -40t-27 -87q0 -24 14.5 -76t14.5 -83q0 -48 -27.5 -82t-70.5 -40
q43 -6 70.5 -40t27.5 -82q0 -31 -14.5 -83t-14.5 -76q0 -56 27 -87t95 -40z" />
    <glyph glyph-name="bar" unicode="|" horiz-adv-x="225" 
d="M103 -107v884h19v-884h-19z" />
    <glyph glyph-name="braceright" unicode="}" horiz-adv-x="313" 
d="M47 -139l-3 19q68 9 95 40t27 87q0 24 -14.5 76t-14.5 83q0 48 27.5 82t70.5 40q-43 6 -70.5 40t-27.5 82q0 31 14.5 83t14.5 76q0 56 -27 87t-95 40l3 19q79 -12 109.5 -47.5t30.5 -98.5q0 -25 -14.5 -77.5t-14.5 -81.5q0 -46 29.5 -79t81.5 -33h12v-20h-12
q-52 0 -81.5 -33t-29.5 -79q0 -29 14.5 -81.5t14.5 -77.5q0 -63 -30.5 -98.5t-109.5 -47.5z" />
    <glyph glyph-name="asciitilde" unicode="~" horiz-adv-x="347" 
d="M222 259q-20 0 -51 26q-32 27 -45 27q-26 0 -42 -53l-14 3q16 68 56 68q19 0 55 -29q28 -24 42 -24q26 0 41 54l14 -4q-16 -68 -56 -68z" />
    <glyph glyph-name="uni00A0" unicode="&#xa0;" horiz-adv-x="190" 
 />
    <glyph glyph-name="exclamdown" unicode="&#xa1;" horiz-adv-x="159" 
d="M64 649v51h31v-51h-31zM69 0v82l6 435h10l6 -435v-82h-22z" />
    <glyph glyph-name="cent" unicode="&#xa2;" horiz-adv-x="370" 
d="M246 704l-6 -87q52 -4 96 -42l-13 -15q-39 34 -84 38l-30 -493q6 -1 17 -1q56 0 98 40l12 -15q-51 -44 -110 -44q-12 0 -17 1l-6 -91h-19l6 94q-64 16 -101.5 85t-37.5 176v5q0 117 47.5 189t122.5 74l6 86h19zM72 350q0 -97 32.5 -161t86.5 -80l29 490
q-65 -3 -106.5 -69t-41.5 -175v-5z" />
    <glyph glyph-name="sterling" unicode="&#xa3;" horiz-adv-x="401" 
d="M46 0v12l63 8v310h-66v19h66v163q0 110 47 157q39 39 97 39q73 0 120 -64l-16 -13q-43 57 -104 57q-49 0 -82 -33q-40 -40 -40 -142v-164h187v-19h-187v-310h244v-20h-329z" />
    <glyph glyph-name="yen" unicode="&#xa5;" horiz-adv-x="432" 
d="M71 286v18h132l-183 396h23l173 -378l173 378h23l-184 -396h133v-18h-135v-127h135v-18h-135v-141h-20v141h-135v18h135v127h-135z" />
    <glyph glyph-name="section" unicode="&#xa7;" horiz-adv-x="439" 
d="M228 229q113 -51 113 -126v-2q0 -47 -36 -77.5t-92 -30.5q-70 0 -124 43l13 17q52 -41 112 -41q47 0 76 24.5t29 64.5v2q0 37 -32.5 67.5t-107.5 60.5q-76 31 -106.5 62.5t-30.5 71.5v1q0 48 44.5 80.5t124.5 26.5q-113 51 -113 126v2q0 47 36 77.5t92 30.5q70 0 124 -43
l-13 -17q-52 41 -112 41q-47 0 -76 -24.5t-29 -64.5v-2q0 -37 32.5 -67.5t107.5 -60.5q76 -31 106.5 -62.5t30.5 -71.5v-1q0 -48 -44.5 -80.5t-124.5 -26.5zM252 245q52 0 87.5 23.5t35.5 68.5v2q0 58 -84 97q-47 21 -104 21q-52 0 -87.5 -23.5t-35.5 -68.5v-2q0 -58 84 -97
q47 -21 104 -21z" />
    <glyph glyph-name="dieresis" unicode="&#xa8;" 
d="M285 593v40h29v-40h-29zM194 593v40h29v-40h-29z" />
    <glyph glyph-name="copyright" unicode="&#xa9;" horiz-adv-x="619" 
d="M309 -11q-119 0 -195.5 101.5t-76.5 247.5v25q0 147 76.5 247.5t195.5 100.5q120 0 196.5 -100.5t76.5 -247.5v-25q0 -146 -77 -247.5t-196 -101.5zM309 6q113 0 184.5 96.5t71.5 235.5v25q0 139 -71.5 235.5t-184.5 96.5q-112 0 -183.5 -97t-71.5 -235v-25
q0 -139 71.5 -235.5t183.5 -96.5zM318 156q-52 0 -86.5 50.5t-34.5 142.5v5q0 89 35 141t89 52q42 0 79 -34l-13 -14q-32 30 -66 30q-45 0 -74.5 -47.5t-29.5 -126.5v-7q0 -80 29 -127t74 -47q37 0 69 34l13 -13q-39 -39 -84 -39z" />
    <glyph glyph-name="ordfeminine" unicode="&#xaa;" horiz-adv-x="289" 
d="M131 406q-32 0 -53.5 23.5t-21.5 65.5v2q0 41 23.5 64.5t65.5 23.5q32 0 61 -11v31q0 79 -63 79q-31 0 -62 -19l-8 16q36 20 71 20q37 0 57 -20q23 -23 23 -74v-195h-18v44q-25 -50 -75 -50zM55 330v15h177v-15h-177zM132 422q31 0 52.5 24t21.5 54v59q-31 11 -61 11
q-34 0 -52.5 -19.5t-18.5 -53.5v-2q0 -35 16 -54t42 -19z" />
    <glyph glyph-name="guillemotleft" unicode="&#xab;" horiz-adv-x="359" 
d="M298 46l-132 207v4l132 207l16 -9l-126 -199l126 -200zM163 46l-133 207v4l133 207l16 -9l-126 -199l126 -200z" />
    <glyph glyph-name="registered" unicode="&#xae;" horiz-adv-x="346" 
d="M173 368q55 0 91 47t36 114v13q0 69 -36 115t-91 46q-54 0 -90.5 -47t-36.5 -114v-13q0 -67 36 -114t91 -47zM173 357q-61 0 -99.5 49.5t-38.5 122.5v13q0 72 39 122.5t99 50.5q61 0 99.5 -49.5t38.5 -123.5v-13q0 -71 -39 -121.5t-99 -50.5zM128 446v186h46
q26 0 41 -14.5t15 -39.5v-2q0 -42 -36 -53l42 -77h-15l-40 75q-7 -1 -22 -1h-18v-74h-13zM141 532h32q44 0 44 44v2q0 18 -11.5 30t-31.5 12h-33v-88z" />
    <glyph glyph-name="macron" unicode="&#xaf;" 
d="M162 596v19h185v-19h-185z" />
    <glyph glyph-name="degree" unicode="&#xb0;" horiz-adv-x="300" 
d="M150 409q-46 0 -76.5 41.5t-30.5 104.5v6q0 66 30 106t77 40t77 -40t30 -106v-6q0 -64 -30 -105t-77 -41zM150 427q37 0 62.5 34.5t25.5 93.5v6q0 60 -25.5 94t-62.5 34t-62.5 -34t-25.5 -94v-6q0 -58 25.5 -93t62.5 -35z" />
    <glyph glyph-name="plusminus" unicode="&#xb1;" horiz-adv-x="420" 
d="M374 352h-154v-160h-20v160h-154v19h154v159h20v-159h154v-19zM374 75h-328v18h328v-18z" />
    <glyph glyph-name="acute" unicode="&#xb4;" 
d="M207 581l72 117l22 -11l-83 -106h-11z" />
    <glyph glyph-name="paragraph" unicode="&#xb6;" horiz-adv-x="359" 
d="M262 0v264h-3q-103 0 -164 59t-61 159v2q0 99 59 157.5t158 58.5h33v-700h-22z" />
    <glyph glyph-name="periodcentered" unicode="&#xb7;" horiz-adv-x="122" 
d="M46 258v51h30v-51h-30z" />
    <glyph glyph-name="cedilla" unicode="&#xb8;" 
d="M219 -114l-22 9l66 113h11z" />
    <glyph glyph-name="ordmasculine" unicode="&#xba;" horiz-adv-x="293" 
d="M146 406q-44 0 -70 42t-26 103v8q0 67 27.5 106t69.5 39q43 0 69.5 -39t26.5 -106v-8q0 -61 -26.5 -103t-70.5 -42zM53 330v15h188v-15h-188zM147 423q36 0 57 35.5t21 92.5v8q0 58 -21.5 93t-57.5 35q-35 0 -56.5 -35t-21.5 -93v-8q0 -56 22 -92t57 -36z" />
    <glyph glyph-name="guillemotright" unicode="&#xbb;" horiz-adv-x="359" 
d="M196 46l-16 10l126 200l-126 199l16 9l133 -207v-4zM61 46l-16 10l126 200l-126 199l16 9l132 -207v-4z" />
    <glyph glyph-name="questiondown" unicode="&#xbf;" horiz-adv-x="360" 
d="M192 649v51h30v-51h-30zM197 -6q-67 0 -112.5 46t-45.5 118v5q0 69 42 119.5t115 75.5l8 159h10l6 -168l-3 -5q-73 -20 -114.5 -68t-41.5 -112v-4q0 -66 40 -105.5t97 -39.5q74 0 127 62l14 -15q-59 -68 -142 -68z" />
    <glyph glyph-name="Agrave" unicode="&#xc0;" horiz-adv-x="511" 
d="M34 0l212 705h20l211 -705h-22l-63 211h-273l-63 -211h-22zM125 231h261l-130 438zM265 753h-13l-83 87l22 12z" />
    <glyph glyph-name="Aacute" unicode="&#xc1;" horiz-adv-x="511" 
d="M34 0l212 705h20l211 -705h-22l-63 211h-273l-63 -211h-22zM125 231h261l-130 438zM246 753l74 99l22 -12l-83 -87h-13z" />
    <glyph glyph-name="Acircumflex" unicode="&#xc2;" horiz-adv-x="511" 
d="M34 0l212 705h20l211 -705h-22l-63 211h-273l-63 -211h-22zM125 231h261l-130 438zM166 748l81 97h16l80 -97h-17l-72 75l-71 -75h-17z" />
    <glyph glyph-name="Atilde" unicode="&#xc3;" horiz-adv-x="511" 
d="M34 0l212 705h20l211 -705h-22l-63 211h-273l-63 -211h-22zM125 231h261l-130 438zM306 762q-18 0 -53 23q-41 24 -49 24q-25 0 -41 -48l-15 4q17 62 57 62q19 0 57 -25q33 -21 45 -21q24 0 41 48l15 -4q-17 -63 -57 -63z" />
    <glyph glyph-name="Adieresis" unicode="&#xc4;" horiz-adv-x="511" 
d="M34 0l212 705h20l211 -705h-22l-63 211h-273l-63 -211h-22zM125 231h261l-130 438zM289 766v41h29v-41h-29zM192 766v41h29v-41h-29z" />
    <glyph glyph-name="Aring" unicode="&#xc5;" horiz-adv-x="511" 
d="M34 0l202 674q-28 6 -44.5 26t-16.5 47q0 31 22.5 52.5t57.5 21.5t58 -21.5t23 -52.5q0 -26 -17 -46t-45 -26l203 -675h-22l-63 211h-273l-63 -211h-22zM125 231h261l-130 438zM255 687q28 0 46 17.5t18 42.5t-18 42.5t-46 17.5q-27 0 -45.5 -17.5t-18.5 -42.5
t18.5 -42.5t45.5 -17.5z" />
    <glyph glyph-name="AE" unicode="&#xc6;" horiz-adv-x="662" 
d="M6 0l281 700h328v-20h-281v-317h256v-20h-256v-323h285v-20h-307v211h-199l-84 -211h-23zM121 231h191v448h-12z" />
    <glyph glyph-name="Ccedilla" unicode="&#xc7;" horiz-adv-x="451" 
d="M224 -114l-22 9l58 100q-94 6 -151 98t-57 252v9q0 161 66 256.5t163 95.5q76 0 134 -56l-14 -16q-54 52 -120 52q-87 0 -147 -91.5t-60 -240.5v-8q0 -157 57 -244.5t144 -87.5q64 0 129 61l14 -15q-68 -66 -144 -66h-2z" />
    <glyph glyph-name="Egrave" unicode="&#xc8;" horiz-adv-x="429" 
d="M240 748h-13l-83 87l22 12zM75 0v700h307v-20h-285v-317h260v-20h-260v-323h289v-20h-311z" />
    <glyph glyph-name="Eacute" unicode="&#xc9;" horiz-adv-x="429" 
d="M221 748l74 99l22 -12l-83 -87h-13zM75 0v700h307v-20h-285v-317h260v-20h-260v-323h289v-20h-311z" />
    <glyph glyph-name="Ecircumflex" unicode="&#xca;" horiz-adv-x="429" 
d="M75 0v700h307v-20h-285v-317h260v-20h-260v-323h289v-20h-311zM142 751l81 97h16l80 -97h-17l-72 75l-71 -75h-17z" />
    <glyph glyph-name="Edieresis" unicode="&#xcb;" horiz-adv-x="429" 
d="M265 761v41h29v-41h-29zM168 761v41h29v-41h-29zM75 0v700h307v-20h-285v-317h260v-20h-260v-323h289v-20h-311z" />
    <glyph glyph-name="Igrave" unicode="&#xcc;" horiz-adv-x="183" 
d="M81 0v700h22v-700h-22zM101 748h-13l-83 87l22 12z" />
    <glyph glyph-name="Iacute" unicode="&#xcd;" horiz-adv-x="183" 
d="M81 0v700h22v-700h-22zM83 748l74 99l22 -12l-83 -87h-13z" />
    <glyph glyph-name="Icircumflex" unicode="&#xce;" horiz-adv-x="183" 
d="M81 0v700h22v-700h-22zM4 751l81 97h16l80 -97h-17l-72 75l-71 -75h-17z" />
    <glyph glyph-name="Idieresis" unicode="&#xcf;" horiz-adv-x="183" 
d="M81 0v700h22v-700h-22zM126 761v41h29v-41h-29zM29 761v41h29v-41h-29z" />
    <glyph glyph-name="Eth" unicode="&#xd0;" horiz-adv-x="518" 
d="M81 0v343h-61v19h61v338h117q119 0 193.5 -93t74.5 -251v-12q0 -158 -74.5 -251t-196.5 -93h-114zM253 343h-150v-323h91q114 0 182 87.5t68 236.5v12q0 148 -68.5 236t-179.5 88h-93v-318h150v-19z" />
    <glyph glyph-name="Ntilde" unicode="&#xd1;" horiz-adv-x="531" 
d="M318 752q-18 0 -53 23q-41 24 -49 24q-25 0 -41 -48l-15 4q17 62 57 62q19 0 57 -25q33 -21 45 -21q24 0 41 48l15 -4q-17 -63 -57 -63zM75 0v700h20l340 -646v646h21v-700h-16l-344 655v-655h-21z" />
    <glyph glyph-name="Ograve" unicode="&#xd2;" horiz-adv-x="542" 
d="M281 753h-13l-83 87l22 12zM271 -9q-97 0 -158 96.5t-61 258.5v8q0 162 61 258.5t158 96.5t158 -96.5t61 -258.5v-8q0 -162 -61 -258.5t-158 -96.5zM271 11q87 0 142 92t55 242v9q0 149 -55.5 242t-141.5 93t-141.5 -92.5t-55.5 -241.5v-9q0 -149 55.5 -242t141.5 -93z
" />
    <glyph glyph-name="Oacute" unicode="&#xd3;" horiz-adv-x="542" 
d="M262 753l74 99l22 -12l-83 -87h-13zM271 -9q-97 0 -158 96.5t-61 258.5v8q0 162 61 258.5t158 96.5t158 -96.5t61 -258.5v-8q0 -162 -61 -258.5t-158 -96.5zM271 11q87 0 142 92t55 242v9q0 149 -55.5 242t-141.5 93t-141.5 -92.5t-55.5 -241.5v-9q0 -149 55.5 -242
t141.5 -93z" />
    <glyph glyph-name="Ocircumflex" unicode="&#xd4;" horiz-adv-x="542" 
d="M271 -9q-97 0 -158 96.5t-61 258.5v8q0 162 61 258.5t158 96.5t158 -96.5t61 -258.5v-8q0 -162 -61 -258.5t-158 -96.5zM271 11q87 0 142 92t55 242v9q0 149 -55.5 242t-141.5 93t-141.5 -92.5t-55.5 -241.5v-9q0 -149 55.5 -242t141.5 -93zM182 756l81 97h16l80 -97h-17
l-72 75l-71 -75h-17z" />
    <glyph glyph-name="Otilde" unicode="&#xd5;" horiz-adv-x="542" 
d="M321 762q-18 0 -53 23q-41 24 -49 24q-25 0 -41 -48l-15 4q17 62 57 62q19 0 57 -25q33 -21 45 -21q24 0 41 48l15 -4q-17 -63 -57 -63zM271 -9q-97 0 -158 96.5t-61 258.5v8q0 162 61 258.5t158 96.5t158 -96.5t61 -258.5v-8q0 -162 -61 -258.5t-158 -96.5zM271 11
q87 0 142 92t55 242v9q0 149 -55.5 242t-141.5 93t-141.5 -92.5t-55.5 -241.5v-9q0 -149 55.5 -242t141.5 -93z" />
    <glyph glyph-name="Odieresis" unicode="&#xd6;" horiz-adv-x="542" 
d="M305 766v41h29v-41h-29zM208 766v41h29v-41h-29zM271 -9q-97 0 -158 96.5t-61 258.5v8q0 162 61 258.5t158 96.5t158 -96.5t61 -258.5v-8q0 -162 -61 -258.5t-158 -96.5zM271 11q87 0 142 92t55 242v9q0 149 -55.5 242t-141.5 93t-141.5 -92.5t-55.5 -241.5v-9
q0 -149 55.5 -242t141.5 -93z" />
    <glyph glyph-name="multiply" unicode="&#xd7;" horiz-adv-x="418" 
d="M333 203l-126 135l-126 -135l-14 14l127 135l-127 134l15 15l126 -135l125 135l15 -14l-128 -135l128 -134z" />
    <glyph glyph-name="Oslash" unicode="&#xd8;" horiz-adv-x="542" 
d="M463 707h22l-55 -97q60 -96 60 -256v-8q0 -162 -61 -258.5t-158 -96.5q-89 0 -147 80l-45 -78h-22l54 97q-59 97 -59 256v8q0 162 61 258.5t158 96.5q87 0 147 -80zM271 11q87 0 142 92t55 242v9q0 140 -50 234l-283 -496q55 -81 136 -81zM74 346q0 -144 50 -235l282 496
q-54 82 -135 82q-87 0 -142 -92t-55 -242v-9z" />
    <glyph glyph-name="Ugrave" unicode="&#xd9;" horiz-adv-x="514" 
d="M266 743h-13l-83 87l22 12zM256 -8q-87 0 -137 60.5t-50 169.5v478h22v-478q0 -101 45 -155.5t121 -54.5q77 0 121.5 54t44.5 155v479h22v-478q0 -109 -50.5 -169.5t-138.5 -60.5z" />
    <glyph glyph-name="Uacute" unicode="&#xda;" horiz-adv-x="514" 
d="M247 743l74 99l22 -12l-83 -87h-13zM256 -8q-87 0 -137 60.5t-50 169.5v478h22v-478q0 -101 45 -155.5t121 -54.5q77 0 121.5 54t44.5 155v479h22v-478q0 -109 -50.5 -169.5t-138.5 -60.5z" />
    <glyph glyph-name="Ucircumflex" unicode="&#xdb;" horiz-adv-x="514" 
d="M256 -8q-87 0 -137 60.5t-50 169.5v478h22v-478q0 -101 45 -155.5t121 -54.5q77 0 121.5 54t44.5 155v479h22v-478q0 -109 -50.5 -169.5t-138.5 -60.5zM168 746l81 97h16l80 -97h-17l-72 75l-71 -75h-17z" />
    <glyph glyph-name="Udieresis" unicode="&#xdc;" horiz-adv-x="514" 
d="M290 756v41h29v-41h-29zM193 756v41h29v-41h-29zM256 -8q-87 0 -137 60.5t-50 169.5v478h22v-478q0 -101 45 -155.5t121 -54.5q77 0 121.5 54t44.5 155v479h22v-478q0 -109 -50.5 -169.5t-138.5 -60.5z" />
    <glyph glyph-name="Yacute" unicode="&#xdd;" horiz-adv-x="439" 
d="M209 0v299l-192 401h23l180 -379l180 379h23l-192 -401v-299h-22zM210 743l74 99l22 -12l-83 -87h-13z" />
    <glyph glyph-name="Thorn" unicode="&#xde;" horiz-adv-x="451" 
d="M75 0v700h22v-126h100q102 0 161.5 -57.5t59.5 -154.5v-2q0 -98 -60 -157t-165 -59h-96v-144h-22zM97 164h96q93 0 148 52.5t55 142.5v2q0 89 -55 141t-146 52h-98v-390z" />
    <glyph glyph-name="germandbls" unicode="&#xdf;" horiz-adv-x="408" 
d="M177 -2v18q76 4 123 51t47 118v3q0 72 -45.5 114t-124.5 53v17q61 18 102 65t41 116v3q0 61 -30 99.5t-82 38.5q-58 0 -89 -44.5t-31 -126.5v-523h-21v521q0 92 37.5 142.5t103.5 50.5q61 0 97 -44t36 -112v-4q0 -70 -38.5 -119t-90.5 -69q63 -11 109.5 -54.5
t46.5 -120.5v-5q0 -83 -53.5 -134.5t-137.5 -53.5z" />
    <glyph glyph-name="agrave" unicode="&#xe0;" horiz-adv-x="397" 
d="M171 -8q-60 0 -96.5 42t-36.5 115v2q0 77 41.5 121t116.5 44q59 0 119 -28v79q0 62 -31.5 98.5t-91.5 36.5q-58 0 -111 -33l-10 18q57 35 121 35q67 0 104 -37q40 -40 40 -114v-371h-21v100q-16 -46 -53 -77t-91 -31zM173 12q60 0 101 50t41 114v91q-60 29 -119 29
q-65 0 -100.5 -38t-35.5 -106v-3q0 -63 30.5 -100t82.5 -37zM201 584l-84 106l23 11l72 -117h-11z" />
    <glyph glyph-name="aacute" unicode="&#xe1;" horiz-adv-x="397" 
d="M171 -8q-60 0 -96.5 42t-36.5 115v2q0 77 41.5 121t116.5 44q59 0 119 -28v79q0 62 -31.5 98.5t-91.5 36.5q-58 0 -111 -33l-10 18q57 35 121 35q67 0 104 -37q40 -40 40 -114v-371h-21v100q-16 -46 -53 -77t-91 -31zM173 12q60 0 101 50t41 114v91q-60 29 -119 29
q-65 0 -100.5 -38t-35.5 -106v-3q0 -63 30.5 -100t82.5 -37zM195 584l72 117l22 -11l-83 -106h-11z" />
    <glyph glyph-name="acircumflex" unicode="&#xe2;" horiz-adv-x="397" 
d="M171 -8q-60 0 -96.5 42t-36.5 115v2q0 77 41.5 121t116.5 44q59 0 119 -28v79q0 62 -31.5 98.5t-91.5 36.5q-58 0 -111 -33l-10 18q57 35 121 35q67 0 104 -37q40 -40 40 -114v-371h-21v100q-16 -46 -53 -77t-91 -31zM173 12q60 0 101 50t41 114v91q-60 29 -119 29
q-65 0 -100.5 -38t-35.5 -106v-3q0 -63 30.5 -100t82.5 -37zM118 588l78 119h15l78 -119h-16l-70 95l-69 -95h-16z" />
    <glyph glyph-name="atilde" unicode="&#xe3;" horiz-adv-x="397" 
d="M171 -8q-60 0 -96.5 42t-36.5 115v2q0 77 41.5 121t116.5 44q59 0 119 -28v79q0 62 -31.5 98.5t-91.5 36.5q-58 0 -111 -33l-10 18q57 35 121 35q67 0 104 -37q40 -40 40 -114v-371h-21v100q-16 -46 -53 -77t-91 -31zM173 12q60 0 101 50t41 114v91q-60 29 -119 29
q-65 0 -100.5 -38t-35.5 -106v-3q0 -63 30.5 -100t82.5 -37zM247 595q-20 0 -49 26q-32 27 -44 27q-25 0 -41 -55l-15 4q17 70 57 70q20 0 52 -30q28 -24 41 -24q25 0 41 56l15 -4q-17 -70 -57 -70z" />
    <glyph glyph-name="adieresis" unicode="&#xe4;" horiz-adv-x="397" 
d="M171 -8q-60 0 -96.5 42t-36.5 115v2q0 77 41.5 121t116.5 44q59 0 119 -28v79q0 62 -31.5 98.5t-91.5 36.5q-58 0 -111 -33l-10 18q57 35 121 35q67 0 104 -37q40 -40 40 -114v-371h-21v100q-16 -46 -53 -77t-91 -31zM173 12q60 0 101 50t41 114v91q-60 29 -119 29
q-65 0 -100.5 -38t-35.5 -106v-3q0 -63 30.5 -100t82.5 -37zM234 596v40h29v-40h-29zM143 596v40h29v-40h-29z" />
    <glyph glyph-name="aring" unicode="&#xe5;" horiz-adv-x="397" 
d="M171 -8q-60 0 -96.5 42t-36.5 115v2q0 77 41.5 121t116.5 44q59 0 119 -28v79q0 62 -31.5 98.5t-91.5 36.5q-58 0 -111 -33l-10 18q57 35 121 35q67 0 104 -37q40 -40 40 -114v-371h-21v100q-16 -46 -53 -77t-91 -31zM173 12q60 0 101 50t41 114v91q-60 29 -119 29
q-65 0 -100.5 -38t-35.5 -106v-3q0 -63 30.5 -100t82.5 -37zM203 591q-33 0 -54.5 22t-21.5 55q0 32 21.5 54t54.5 22t54.5 -22t21.5 -54q0 -33 -21.5 -55t-54.5 -22zM203 605q27 0 44 18t17 45t-17 44.5t-44 17.5t-44 -17.5t-17 -44.5t17 -45t44 -18z" />
    <glyph glyph-name="ae" unicode="&#xe6;" horiz-adv-x="672" 
d="M174 -8q-62 0 -99 42t-37 115v2q0 77 41.5 121t116.5 44q61 0 117 -27q1 2 1.5 37.5t0.5 37.5q-1 67 -34.5 102.5t-95.5 35.5q-58 0 -106 -30l-10 19q57 31 117 31q62 0 101 -33t46 -95q21 62 59 96t84 34q71 0 113.5 -71t42.5 -186v-16h-298q1 -111 48 -175t115 -64
q64 0 112 48l14 -17q-57 -51 -127 -51q-52 0 -95 34t-66 96q-21 -57 -63.5 -93.5t-97.5 -36.5zM334 271h276q-1 99 -37.5 166t-96.5 67q-59 0 -99 -64t-43 -169zM176 12q50 0 89 36.5t62 102.5q-14 50 -14 116q-55 29 -117 29q-65 0 -100.5 -38t-35.5 -106v-3q0 -63 31 -100
t85 -37z" />
    <glyph glyph-name="ccedilla" unicode="&#xe7;" horiz-adv-x="353" 
d="M164 -114l-22 9l57 98q-70 6 -113 75t-43 187v6q0 119 51 191t124 72q60 0 104 -48l-14 -16q-41 43 -91 43q-64 0 -108 -66.5t-44 -175.5v-6q0 -114 42 -178t108 -64q48 0 94 46l14 -15q-52 -52 -109 -52h-2z" />
    <glyph glyph-name="egrave" unicode="&#xe8;" horiz-adv-x="405" 
d="M223 -8q-77 0 -128.5 70t-51.5 193v3q0 123 48 194.5t117 71.5q70 0 113.5 -71t43.5 -186v-16h-300q1 -111 46.5 -175t112.5 -64q64 0 116 49l14 -15q-59 -54 -131 -54zM65 271h278q-1 100 -38 166.5t-98 66.5q-58 0 -99 -64.5t-43 -168.5zM207 584l-84 106l23 11
l72 -117h-11z" />
    <glyph glyph-name="eacute" unicode="&#xe9;" horiz-adv-x="405" 
d="M201 584l72 117l22 -11l-83 -106h-11zM223 -8q-77 0 -128.5 70t-51.5 193v3q0 123 48 194.5t117 71.5q70 0 113.5 -71t43.5 -186v-16h-300q1 -111 46.5 -175t112.5 -64q64 0 116 49l14 -15q-59 -54 -131 -54zM65 271h278q-1 100 -38 166.5t-98 66.5q-58 0 -99 -64.5
t-43 -168.5z" />
    <glyph glyph-name="ecircumflex" unicode="&#xea;" horiz-adv-x="405" 
d="M124 588l78 119h15l78 -119h-16l-70 95l-69 -95h-16zM223 -8q-77 0 -128.5 70t-51.5 193v3q0 123 48 194.5t117 71.5q70 0 113.5 -71t43.5 -186v-16h-300q1 -111 46.5 -175t112.5 -64q64 0 116 49l14 -15q-59 -54 -131 -54zM65 271h278q-1 100 -38 166.5t-98 66.5
q-58 0 -99 -64.5t-43 -168.5z" />
    <glyph glyph-name="edieresis" unicode="&#xeb;" horiz-adv-x="405" 
d="M240 596v40h29v-40h-29zM149 596v40h29v-40h-29zM223 -8q-77 0 -128.5 70t-51.5 193v3q0 123 48 194.5t117 71.5q70 0 113.5 -71t43.5 -186v-16h-300q1 -111 46.5 -175t112.5 -64q64 0 116 49l14 -15q-59 -54 -131 -54zM65 271h278q-1 100 -38 166.5t-98 66.5
q-58 0 -99 -64.5t-43 -168.5z" />
    <glyph glyph-name="igrave" unicode="&#xec;" horiz-adv-x="164" 
d="M72 0v516h21v-516h-21zM80 581l-84 106l23 11l72 -117h-11z" />
    <glyph glyph-name="iacute" unicode="&#xed;" horiz-adv-x="164" 
d="M74 581l72 117l22 -11l-83 -106h-11zM72 0v516h21v-516h-21z" />
    <glyph glyph-name="icircumflex" unicode="&#xee;" horiz-adv-x="164" 
d="M-3 585l78 119h15l78 -119h-16l-70 95l-69 -95h-16zM72 0v516h21v-516h-21z" />
    <glyph glyph-name="idieresis" unicode="&#xef;" horiz-adv-x="164" 
d="M113 593v40h29v-40h-29zM22 593v40h29v-40h-29zM72 0v516h21v-516h-21z" />
    <glyph glyph-name="eth" unicode="&#xf0;" horiz-adv-x="425" 
d="M316 692l-74 -47q140 -173 140 -365v-11q0 -124 -48 -201t-121 -77q-76 0 -123.5 79t-47.5 186v7q0 117 50 191t120 74q73 0 123 -76q-36 91 -110 182l-90 -56l-10 15l89 55q-33 39 -61 65h28l49 -54l76 47zM213 11q60 0 104 70.5t44 176.5v8q0 109 -42.5 175.5
t-105.5 66.5q-61 0 -105 -67t-44 -178v-7q0 -97 42 -171t107 -74z" />
    <glyph glyph-name="ntilde" unicode="&#xf1;" horiz-adv-x="430" 
d="M67 0v516h21v-103q13 45 49.5 78t89.5 33q66 0 104 -49t38 -136v-339h-21v339q0 77 -32 121t-91 44q-56 0 -96.5 -48.5t-40.5 -120.5v-335h-21zM261 595q-20 0 -49 26q-32 27 -44 27q-25 0 -41 -55l-15 4q17 70 57 70q20 0 52 -30q28 -24 41 -24q25 0 41 56l15 -4
q-17 -70 -57 -70z" />
    <glyph glyph-name="ograve" unicode="&#xf2;" horiz-adv-x="432" 
d="M216 -8q-75 0 -124.5 73.5t-49.5 189.5v6q0 116 49.5 189.5t124.5 73.5t124.5 -73.5t49.5 -189.5v-6q0 -116 -49.5 -189.5t-124.5 -73.5zM216 12q65 0 108.5 69.5t43.5 173.5v6q0 104 -43.5 173.5t-108.5 69.5t-108.5 -69.5t-43.5 -173.5v-6q0 -104 43.5 -173.5
t108.5 -69.5zM214 584l-84 106l23 11l72 -117h-11z" />
    <glyph glyph-name="oacute" unicode="&#xf3;" horiz-adv-x="432" 
d="M208 584l72 117l22 -11l-83 -106h-11zM216 -8q-75 0 -124.5 73.5t-49.5 189.5v6q0 116 49.5 189.5t124.5 73.5t124.5 -73.5t49.5 -189.5v-6q0 -116 -49.5 -189.5t-124.5 -73.5zM216 12q65 0 108.5 69.5t43.5 173.5v6q0 104 -43.5 173.5t-108.5 69.5t-108.5 -69.5
t-43.5 -173.5v-6q0 -104 43.5 -173.5t108.5 -69.5z" />
    <glyph glyph-name="ocircumflex" unicode="&#xf4;" horiz-adv-x="432" 
d="M131 588l78 119h15l78 -119h-16l-70 95l-69 -95h-16zM216 -8q-75 0 -124.5 73.5t-49.5 189.5v6q0 116 49.5 189.5t124.5 73.5t124.5 -73.5t49.5 -189.5v-6q0 -116 -49.5 -189.5t-124.5 -73.5zM216 12q65 0 108.5 69.5t43.5 173.5v6q0 104 -43.5 173.5t-108.5 69.5
t-108.5 -69.5t-43.5 -173.5v-6q0 -104 43.5 -173.5t108.5 -69.5z" />
    <glyph glyph-name="otilde" unicode="&#xf5;" horiz-adv-x="432" 
d="M216 -8q-75 0 -124.5 73.5t-49.5 189.5v6q0 116 49.5 189.5t124.5 73.5t124.5 -73.5t49.5 -189.5v-6q0 -116 -49.5 -189.5t-124.5 -73.5zM216 12q65 0 108.5 69.5t43.5 173.5v6q0 104 -43.5 173.5t-108.5 69.5t-108.5 -69.5t-43.5 -173.5v-6q0 -104 43.5 -173.5
t108.5 -69.5zM261 595q-20 0 -49 26q-32 27 -44 27q-25 0 -41 -55l-15 4q17 70 57 70q20 0 52 -30q28 -24 41 -24q25 0 41 56l15 -4q-17 -70 -57 -70z" />
    <glyph glyph-name="odieresis" unicode="&#xf6;" horiz-adv-x="432" 
d="M247 596v40h29v-40h-29zM156 596v40h29v-40h-29zM216 -8q-75 0 -124.5 73.5t-49.5 189.5v6q0 116 49.5 189.5t124.5 73.5t124.5 -73.5t49.5 -189.5v-6q0 -116 -49.5 -189.5t-124.5 -73.5zM216 12q65 0 108.5 69.5t43.5 173.5v6q0 104 -43.5 173.5t-108.5 69.5
t-108.5 -69.5t-43.5 -173.5v-6q0 -104 43.5 -173.5t108.5 -69.5z" />
    <glyph glyph-name="divide" unicode="&#xf7;" horiz-adv-x="420" 
d="M196 482v46h29v-46h-29zM374 342h-328v20h328v-20zM196 176v46h29v-46h-29z" />
    <glyph glyph-name="oslash" unicode="&#xf8;" horiz-adv-x="432" 
d="M361 523h21l-42 -71q50 -74 50 -191v-6q0 -116 -49.5 -189.5t-124.5 -73.5q-64 0 -111 56l-34 -55h-21l42 71q-50 74 -50 191v6q0 116 49.5 189.5t124.5 73.5q63 0 111 -56zM64 255q0 -102 41 -170l211 362q-41 57 -100 57q-65 0 -108.5 -69.5t-43.5 -173.5v-6zM216 12
q65 0 108.5 69.5t43.5 173.5v6q0 98 -41 169l-212 -361q43 -57 101 -57z" />
    <glyph glyph-name="ugrave" unicode="&#xf9;" horiz-adv-x="430" 
d="M203 -8q-66 0 -103.5 49t-37.5 136v339h21v-339q0 -77 32 -121t90 -44q56 0 96.5 48.5t40.5 120.5v335h21v-516h-21v103q-12 -45 -48.5 -78t-90.5 -33zM210 576l-84 106l23 11l72 -117h-11z" />
    <glyph glyph-name="uacute" unicode="&#xfa;" horiz-adv-x="430" 
d="M205 576l72 117l22 -11l-83 -106h-11zM203 -8q-66 0 -103.5 49t-37.5 136v339h21v-339q0 -77 32 -121t90 -44q56 0 96.5 48.5t40.5 120.5v335h21v-516h-21v103q-12 -45 -48.5 -78t-90.5 -33z" />
    <glyph glyph-name="ucircumflex" unicode="&#xfb;" horiz-adv-x="430" 
d="M127 580l78 119h15l78 -119h-16l-70 95l-69 -95h-16zM203 -8q-66 0 -103.5 49t-37.5 136v339h21v-339q0 -77 32 -121t90 -44q56 0 96.5 48.5t40.5 120.5v335h21v-516h-21v103q-12 -45 -48.5 -78t-90.5 -33z" />
    <glyph glyph-name="udieresis" unicode="&#xfc;" horiz-adv-x="430" 
d="M244 588v40h29v-40h-29zM153 588v40h29v-40h-29zM203 -8q-66 0 -103.5 49t-37.5 136v339h21v-339q0 -77 32 -121t90 -44q56 0 96.5 48.5t40.5 120.5v335h21v-516h-21v103q-12 -45 -48.5 -78t-90.5 -33z" />
    <glyph glyph-name="yacute" unicode="&#xfd;" horiz-adv-x="393" 
d="M198 42l145 474h22l-155 -506q-27 -89 -54.5 -120.5t-64.5 -31.5q-32 0 -60 19l10 19q25 -18 50 -18q30 0 52 27t45 104l-158 507h22zM190 576l72 117l22 -11l-83 -106h-11z" />
    <glyph glyph-name="thorn" unicode="&#xfe;" horiz-adv-x="462" 
d="M67 -138v851h21v-333q14 55 51.5 99.5t95.5 44.5q73 0 120.5 -75t47.5 -188v-6q0 -113 -47.5 -188t-120.5 -75q-58 0 -95.5 44.5t-51.5 99.5v-274h-21zM234 12q65 0 106 70t41 173v6q0 102 -41 172.5t-106 70.5q-64 0 -105.5 -71t-41.5 -172v-6q0 -101 42 -172t105 -71z
" />
    <glyph glyph-name="ydieresis" unicode="&#xff;" horiz-adv-x="393" 
d="M198 42l145 474h22l-155 -506q-27 -89 -54.5 -120.5t-64.5 -31.5q-32 0 -60 19l10 19q25 -18 50 -18q30 0 52 27t45 104l-158 507h22zM228 588v40h29v-40h-29zM137 588v40h29v-40h-29z" />
    <glyph glyph-name="Amacron" unicode="&#x100;" horiz-adv-x="511" 
d="M34 0l212 705h20l211 -705h-22l-63 211h-273l-63 -211h-22zM125 231h261l-130 438zM158 769v19h194v-19h-194z" />
    <glyph glyph-name="amacron" unicode="&#x101;" horiz-adv-x="397" 
d="M171 -8q-60 0 -96.5 42t-36.5 115v2q0 77 41.5 121t116.5 44q59 0 119 -28v79q0 62 -31.5 98.5t-91.5 36.5q-58 0 -111 -33l-10 18q57 35 121 35q67 0 104 -37q40 -40 40 -114v-371h-21v100q-16 -46 -53 -77t-91 -31zM173 12q60 0 101 50t41 114v91q-60 29 -119 29
q-65 0 -100.5 -38t-35.5 -106v-3q0 -63 30.5 -100t82.5 -37zM111 599v19h185v-19h-185z" />
    <glyph glyph-name="Abreve" unicode="&#x102;" horiz-adv-x="511" 
d="M34 0l212 705h20l211 -705h-22l-63 211h-273l-63 -211h-22zM125 231h261l-130 438zM255 755q-43 0 -70 20.5t-33 59.5h17q14 -62 86 -62t86 62h17q-6 -39 -33 -59.5t-70 -20.5z" />
    <glyph glyph-name="abreve" unicode="&#x103;" horiz-adv-x="397" 
d="M171 -8q-60 0 -96.5 42t-36.5 115v2q0 77 41.5 121t116.5 44q59 0 119 -28v79q0 62 -31.5 98.5t-91.5 36.5q-58 0 -111 -33l-10 18q57 35 121 35q67 0 104 -37q40 -40 40 -114v-371h-21v100q-16 -46 -53 -77t-91 -31zM173 12q60 0 101 50t41 114v91q-60 29 -119 29
q-65 0 -100.5 -38t-35.5 -106v-3q0 -63 30.5 -100t82.5 -37zM203 586q-43 0 -69 25.5t-32 69.5h18q5 -33 25.5 -55t57.5 -22t57.5 22t26.5 55h17q-6 -44 -32 -69.5t-69 -25.5z" />
    <glyph glyph-name="Aogonek" unicode="&#x104;" horiz-adv-x="511" 
d="M487 -106v-15q-6 -1 -12 -1q-31 0 -48 13t-17 34q0 32 44 76l-62 210h-273l-63 -211h-22l212 705h20l211 -705h-9q-37 -43 -37 -72q0 -33 56 -34zM125 231h261l-130 438z" />
    <glyph glyph-name="aogonek" unicode="&#x105;" horiz-adv-x="397" 
d="M350 -106v-15q-6 -1 -12 -1q-31 0 -48 13t-17 34q0 34 43 75h-1v100q-16 -46 -53 -77t-91 -31q-60 0 -96.5 42t-36.5 115v2q0 77 41.5 121t116.5 44q59 0 119 -28v79q0 62 -31.5 98.5t-91.5 36.5q-58 0 -111 -33l-10 18q57 35 121 35q67 0 104 -37q40 -40 40 -114v-371
h-5q-37 -43 -37 -72q0 -33 56 -34zM173 12q60 0 101 50t41 114v91q-60 29 -119 29q-65 0 -100.5 -38t-35.5 -106v-3q0 -63 30.5 -100t82.5 -37z" />
    <glyph glyph-name="Cacute" unicode="&#x106;" horiz-adv-x="451" 
d="M274 -6q-100 0 -161 92.5t-61 258.5v9q0 161 66 256.5t163 95.5q76 0 134 -56l-14 -16q-54 52 -120 52q-87 0 -147 -91.5t-60 -240.5v-8q0 -157 57 -244.5t144 -87.5q64 0 129 61l14 -15q-68 -66 -144 -66zM264 753l74 99l22 -12l-83 -87h-13z" />
    <glyph glyph-name="cacute" unicode="&#x107;" horiz-adv-x="353" 
d="M208 584l72 117l22 -11l-83 -106h-11zM214 -8q-76 0 -123.5 69t-47.5 194v6q0 119 51 191t124 72q60 0 104 -48l-14 -16q-41 43 -91 43q-64 0 -108 -66.5t-44 -175.5v-6q0 -114 42 -178t108 -64q48 0 94 46l14 -15q-52 -52 -109 -52z" />
    <glyph glyph-name="Cdotaccent" unicode="&#x10a;" horiz-adv-x="451" 
d="M257 766v41h30v-41h-30zM274 -6q-100 0 -161 92.5t-61 258.5v9q0 161 66 256.5t163 95.5q76 0 134 -56l-14 -16q-54 52 -120 52q-87 0 -147 -91.5t-60 -240.5v-8q0 -157 57 -244.5t144 -87.5q64 0 129 61l14 -15q-68 -66 -144 -66z" />
    <glyph glyph-name="cdotaccent" unicode="&#x10b;" horiz-adv-x="353" 
d="M214 -8q-76 0 -123.5 69t-47.5 194v6q0 119 51 191t124 72q60 0 104 -48l-14 -16q-41 43 -91 43q-64 0 -108 -66.5t-44 -175.5v-6q0 -114 42 -178t108 -64q48 0 94 46l14 -15q-52 -52 -109 -52zM202 596v40h29v-40h-29z" />
    <glyph glyph-name="Ccaron" unicode="&#x10c;" horiz-adv-x="451" 
d="M274 -6q-100 0 -161 92.5t-61 258.5v9q0 161 66 256.5t163 95.5q76 0 134 -56l-14 -16q-54 52 -120 52q-87 0 -147 -91.5t-60 -240.5v-8q0 -157 57 -244.5t144 -87.5q64 0 129 61l14 -15q-68 -66 -144 -66zM361 853l-80 -97h-16l-81 97h17l71 -74l72 74h17z" />
    <glyph glyph-name="ccaron" unicode="&#x10d;" horiz-adv-x="353" 
d="M302 707l-78 -119h-15l-78 119h16l70 -95l69 95h16zM214 -8q-76 0 -123.5 69t-47.5 194v6q0 119 51 191t124 72q60 0 104 -48l-14 -16q-41 43 -91 43q-64 0 -108 -66.5t-44 -175.5v-6q0 -114 42 -178t108 -64q48 0 94 46l14 -15q-52 -52 -109 -52z" />
    <glyph glyph-name="Dcaron" unicode="&#x10e;" horiz-adv-x="512" 
d="M75 0v700h101q132 0 208 -91.5t76 -252.5v-12q0 -160 -76 -252t-211 -92h-98zM175 680h-78v-660h75q127 0 196.5 86.5t69.5 237.5v12q0 150 -70 237t-193 87zM323 848l-80 -97h-16l-81 97h17l71 -74l72 74h17z" />
    <glyph glyph-name="dcaron" unicode="&#x10f;" horiz-adv-x="446" 
d="M424 565l10 148h22v-2l-23 -146h-9zM209 -8q-73 0 -119 74t-46 189v6q0 115 46 189t119 74q60 0 98 -44.5t51 -99.5v333h21v-713h-21v136q-13 -55 -51 -99.5t-98 -44.5zM210 12q65 0 107 70.5t42 172.5v6q0 102 -42 172.5t-107 70.5t-104.5 -69t-39.5 -174v-6
q0 -105 39.5 -174t104.5 -69z" />
    <glyph glyph-name="Dcroat" unicode="&#x110;" horiz-adv-x="518" 
d="M81 0v343h-61v19h61v338h117q119 0 193.5 -93t74.5 -251v-12q0 -158 -74.5 -251t-196.5 -93h-114zM253 343h-150v-323h91q114 0 182 87.5t68 236.5v12q0 148 -68.5 236t-179.5 88h-93v-318h150v-19z" />
    <glyph glyph-name="dcroat" unicode="&#x111;" horiz-adv-x="448" 
d="M225 611v18h134v84h21v-84h54v-18h-54v-611h-21v136q-14 -55 -51.5 -99.5t-95.5 -44.5q-73 0 -120 75t-47 188v6q0 113 47 188t120 75q58 0 95.5 -44.5t51.5 -99.5v231h-134zM213 12q64 0 105.5 71t41.5 172v6q0 101 -41.5 172t-105.5 71q-65 0 -105.5 -70t-40.5 -173v-6
q0 -102 40.5 -172.5t105.5 -70.5z" />
    <glyph glyph-name="Emacron" unicode="&#x112;" horiz-adv-x="429" 
d="M134 764v19h194v-19h-194zM75 0v700h307v-20h-285v-317h260v-20h-260v-323h289v-20h-311z" />
    <glyph glyph-name="emacron" unicode="&#x113;" horiz-adv-x="405" 
d="M223 -8q-77 0 -128.5 70t-51.5 193v3q0 123 48 194.5t117 71.5q70 0 113.5 -71t43.5 -186v-16h-300q1 -111 46.5 -175t112.5 -64q64 0 116 49l14 -15q-59 -54 -131 -54zM65 271h278q-1 100 -38 166.5t-98 66.5q-58 0 -99 -64.5t-43 -168.5zM117 599v19h185v-19h-185z" />
    <glyph glyph-name="Ebreve" unicode="&#x114;" horiz-adv-x="429" 
d="M231 750q-43 0 -70 20.5t-33 59.5h17q14 -62 86 -62t86 62h17q-6 -39 -33 -59.5t-70 -20.5zM75 0v700h307v-20h-285v-317h260v-20h-260v-323h289v-20h-311z" />
    <glyph glyph-name="ebreve" unicode="&#x115;" horiz-adv-x="405" 
d="M223 -8q-77 0 -128.5 70t-51.5 193v3q0 123 48 194.5t117 71.5q70 0 113.5 -71t43.5 -186v-16h-300q1 -111 46.5 -175t112.5 -64q64 0 116 49l14 -15q-59 -54 -131 -54zM65 271h278q-1 100 -38 166.5t-98 66.5q-58 0 -99 -64.5t-43 -168.5zM209 586q-43 0 -69 25.5
t-32 69.5h18q5 -33 25.5 -55t57.5 -22t57.5 22t26.5 55h17q-6 -44 -32 -69.5t-69 -25.5z" />
    <glyph glyph-name="Edotaccent" unicode="&#x116;" horiz-adv-x="429" 
d="M215 761v41h30v-41h-30zM75 0v700h307v-20h-285v-317h260v-20h-260v-323h289v-20h-311z" />
    <glyph glyph-name="edotaccent" unicode="&#x117;" horiz-adv-x="405" 
d="M223 -8q-77 0 -128.5 70t-51.5 193v3q0 123 48 194.5t117 71.5q70 0 113.5 -71t43.5 -186v-16h-300q1 -111 46.5 -175t112.5 -64q64 0 116 49l14 -15q-59 -54 -131 -54zM65 271h278q-1 100 -38 166.5t-98 66.5q-58 0 -99 -64.5t-43 -168.5zM195 596v40h29v-40h-29z" />
    <glyph glyph-name="Eogonek" unicode="&#x118;" horiz-adv-x="429" 
d="M75 0v700h307v-20h-285v-317h260v-20h-260v-323h289v-20h-21q-37 -43 -37 -72q0 -33 56 -34v-15q-6 -1 -12 -1q-31 0 -48 13t-17 34q0 34 43 75h-275z" />
    <glyph glyph-name="eogonek" unicode="&#x119;" horiz-adv-x="405" 
d="M65 271h278q-1 100 -38 166.5t-98 66.5q-58 0 -99 -64.5t-43 -168.5zM340 61l14 -15q-28 -28 -41 -43q-40 -46 -40 -75q0 -33 56 -34v-15q-6 -1 -12 -1q-31 0 -48 13t-17 34q0 32 57 89q-38 -22 -86 -22q-77 0 -128.5 70t-51.5 193v3q0 123 48 194.5t117 71.5
q70 0 113.5 -71t43.5 -186v-16h-300q1 -111 46.5 -175t112.5 -64q64 0 116 49z" />
    <glyph glyph-name="Ecaron" unicode="&#x11a;" horiz-adv-x="429" 
d="M319 848l-80 -97h-16l-81 97h17l71 -74l72 74h17zM75 0v700h307v-20h-285v-317h260v-20h-260v-323h289v-20h-311z" />
    <glyph glyph-name="ecaron" unicode="&#x11b;" horiz-adv-x="405" 
d="M295 707l-78 -119h-15l-78 119h16l70 -95l69 95h16zM223 -8q-77 0 -128.5 70t-51.5 193v3q0 123 48 194.5t117 71.5q70 0 113.5 -71t43.5 -186v-16h-300q1 -111 46.5 -175t112.5 -64q64 0 116 49l14 -15q-59 -54 -131 -54zM65 271h278q-1 100 -38 166.5t-98 66.5
q-58 0 -99 -64.5t-43 -168.5z" />
    <glyph glyph-name="Gbreve" unicode="&#x11e;" horiz-adv-x="505" 
d="M284 755q-43 0 -70 20.5t-33 59.5h17q14 -62 86 -62t86 62h17q-6 -39 -33 -59.5t-70 -20.5zM300 -9q-106 0 -177 91t-71 263v9q0 162 71 258.5t173 96.5q76 0 139 -50l-13 -18q-59 48 -127 48q-91 0 -156 -92.5t-65 -242.5v-8q0 -161 65.5 -248t162.5 -87q34 0 67 12
t52 29v275h-159v21h180v-307q-65 -50 -142 -50z" />
    <glyph glyph-name="gbreve" unicode="&#x11f;" horiz-adv-x="442" 
d="M208 -139q-76 0 -144 37l10 20q62 -37 134 -37q146 0 146 153v120q-16 -47 -53.5 -87t-93.5 -40q-71 0 -117 70.5t-46 174.5v6q0 104 46 175t117 71q39 0 72 -23.5t49 -49.5t26 -55v120h21v-481q0 -88 -45 -133q-41 -41 -122 -41zM208 47q62 0 104.5 67t42.5 158v6
q0 91 -42.5 158.5t-104.5 67.5t-102 -66t-40 -160v-5q0 -94 40 -160t102 -66zM228 586q-43 0 -69 25.5t-32 69.5h18q5 -33 25.5 -55t57.5 -22t57.5 22t26.5 55h17q-6 -44 -32 -69.5t-69 -25.5z" />
    <glyph glyph-name="Gdotaccent" unicode="&#x120;" horiz-adv-x="505" 
d="M269 766v41h30v-41h-30zM300 -9q-106 0 -177 91t-71 263v9q0 162 71 258.5t173 96.5q76 0 139 -50l-13 -18q-59 48 -127 48q-91 0 -156 -92.5t-65 -242.5v-8q0 -161 65.5 -248t162.5 -87q34 0 67 12t52 29v275h-159v21h180v-307q-65 -50 -142 -50z" />
    <glyph glyph-name="gdotaccent" unicode="&#x121;" horiz-adv-x="442" 
d="M208 -139q-76 0 -144 37l10 20q62 -37 134 -37q146 0 146 153v120q-16 -47 -53.5 -87t-93.5 -40q-71 0 -117 70.5t-46 174.5v6q0 104 46 175t117 71q39 0 72 -23.5t49 -49.5t26 -55v120h21v-481q0 -88 -45 -133q-41 -41 -122 -41zM208 47q62 0 104.5 67t42.5 158v6
q0 91 -42.5 158.5t-104.5 67.5t-102 -66t-40 -160v-5q0 -94 40 -160t102 -66zM214 596v40h29v-40h-29z" />
    <glyph glyph-name="Gcommaaccent" unicode="&#x122;" horiz-adv-x="505" 
d="M265 -178l-7 13q24 14 24 47h-13v50h30v-45q0 -49 -34 -65zM300 -9q-106 0 -177 91t-71 263v9q0 162 71 258.5t173 96.5q76 0 139 -50l-13 -18q-59 48 -127 48q-91 0 -156 -92.5t-65 -242.5v-8q0 -161 65.5 -248t162.5 -87q34 0 67 12t52 29v275h-159v21h180v-307
q-65 -50 -142 -50z" />
    <glyph glyph-name="gcommaaccent" unicode="&#x123;" horiz-adv-x="442" 
d="M238 705l7 -13q-24 -14 -24 -47h13v-50h-30v45q0 49 34 65zM208 -139q-76 0 -144 37l10 20q62 -37 134 -37q146 0 146 153v120q-16 -47 -53.5 -87t-93.5 -40q-71 0 -117 70.5t-46 174.5v6q0 104 46 175t117 71q39 0 72 -23.5t49 -49.5t26 -55v120h21v-481q0 -88 -45 -133
q-41 -41 -122 -41zM208 47q62 0 104.5 67t42.5 158v6q0 91 -42.5 158.5t-104.5 67.5t-102 -66t-40 -160v-5q0 -94 40 -160t102 -66z" />
    <glyph glyph-name="Hbar" unicode="&#x126;" horiz-adv-x="527" 
d="M18 555v18h61v127h22v-127h326v127h22v-127h60v-18h-60v-555h-22v343h-326v-343h-22v555h-61zM101 363h326v192h-326v-192z" />
    <glyph glyph-name="hbar" unicode="&#x127;" horiz-adv-x="430" 
d="M223 611h-135v-198q13 45 49.5 78t89.5 33q66 0 104 -49t38 -136v-339h-21v339q0 77 -32 121t-91 44q-56 0 -96.5 -48.5t-40.5 -120.5v-335h-21v611h-53v18h53v84h21v-84h135v-18z" />
    <glyph glyph-name="Imacron" unicode="&#x12a;" horiz-adv-x="183" 
d="M81 0v700h22v-700h-22zM-5 764v19h194v-19h-194z" />
    <glyph glyph-name="imacron" unicode="&#x12b;" horiz-adv-x="164" 
d="M72 0v516h21v-516h-21zM-10 596v19h185v-19h-185z" />
    <glyph glyph-name="Ibreve" unicode="&#x12c;" horiz-adv-x="183" 
d="M81 0v700h22v-700h-22zM92 750q-43 0 -70 20.5t-33 59.5h17q14 -62 86 -62t86 62h17q-6 -39 -33 -59.5t-70 -20.5z" />
    <glyph glyph-name="ibreve" unicode="&#x12d;" horiz-adv-x="164" 
d="M72 0v516h21v-516h-21zM82 583q-43 0 -69 25.5t-32 69.5h18q5 -33 25.5 -55t57.5 -22t57.5 22t26.5 55h17q-6 -44 -32 -69.5t-69 -25.5z" />
    <glyph glyph-name="Iogonek" unicode="&#x12e;" horiz-adv-x="183" 
d="M81 0v700h22v-700h-5q-37 -43 -37 -72q0 -33 56 -34v-15q-6 -1 -12 -1q-31 0 -48 13t-17 34q0 34 43 75h-2z" />
    <glyph glyph-name="iogonek" unicode="&#x12f;" horiz-adv-x="164" 
d="M72 0v516h21v-516h-4q-37 -43 -37 -72q0 -33 56 -34v-15q-6 -1 -12 -1q-31 0 -48 13t-17 34q0 34 43 75h-2zM69 648v57h26v-57h-26z" />
    <glyph glyph-name="Idotaccent" unicode="&#x130;" horiz-adv-x="183" 
d="M81 0v700h22v-700h-22zM77 761v41h30v-41h-30z" />
    <glyph glyph-name="dotlessi" unicode="&#x131;" horiz-adv-x="164" 
d="M72 0v516h21v-516h-21z" />
    <glyph glyph-name="Kcommaaccent" unicode="&#x136;" horiz-adv-x="456" 
d="M212 -176l-7 13q24 13 24 47h-13v50h30v-45q0 -49 -34 -65zM75 0v700h22v-441l294 441h25l-208 -310l222 -390h-25l-211 370l-97 -145v-225h-22z" />
    <glyph glyph-name="kcommaaccent" unicode="&#x137;" horiz-adv-x="367" 
d="M171 -176l-7 13q24 13 24 47h-13v50h30v-45q0 -49 -34 -65zM67 0v713h21v-530l219 333h24l-146 -219l158 -297h-23l-148 278l-84 -128v-150h-21z" />
    <glyph glyph-name="Lacute" unicode="&#x139;" horiz-adv-x="378" 
d="M84 748l74 99l22 -12l-83 -87h-13zM75 0v700h22v-680h262v-20h-284z" />
    <glyph glyph-name="lacute" unicode="&#x13a;" horiz-adv-x="164" 
d="M74 751l74 99l22 -12l-83 -87h-13zM72 0v713h21v-713h-21z" />
    <glyph glyph-name="Lcommaaccent" unicode="&#x13b;" horiz-adv-x="378" 
d="M190 -177l-7 13q24 14 24 47h-13v50h30v-45q0 -49 -34 -65zM75 0v700h22v-680h262v-20h-284z" />
    <glyph glyph-name="lcommaaccent" unicode="&#x13c;" horiz-adv-x="164" 
d="M63 -177l-7 13q24 14 24 47h-13v50h30v-45q0 -49 -34 -65zM72 0v713h21v-713h-21z" />
    <glyph glyph-name="Lcaron" unicode="&#x13d;" horiz-adv-x="378" 
d="M170 552l10 148h22v-2l-23 -146h-9zM75 0v700h22v-680h262v-20h-284z" />
    <glyph glyph-name="lcaron" unicode="&#x13e;" horiz-adv-x="164" 
d="M138 565l10 148h22v-2l-23 -146h-9zM72 0v713h21v-713h-21z" />
    <glyph glyph-name="Ldot" unicode="&#x13f;" horiz-adv-x="378" 
d="M264 326v44h28v-44h-28zM75 0v700h22v-680h262v-20h-284z" />
    <glyph glyph-name="ldot" unicode="&#x140;" horiz-adv-x="181" 
d="M155 324v46h26v-46h-26zM72 0v713h21v-713h-21z" />
    <glyph glyph-name="Lslash" unicode="&#x141;" horiz-adv-x="390" 
d="M241 402l-131 -77v-305h261v-20h-283v312l-68 -41v24l68 40v365h22v-352l131 77v-23z" />
    <glyph glyph-name="lslash" unicode="&#x142;" horiz-adv-x="188" 
d="M171 401l-67 -42v-359h-21v345l-65 -42v23l65 41v346h21v-332l67 43v-23z" />
    <glyph glyph-name="Nacute" unicode="&#x143;" horiz-adv-x="531" 
d="M259 743l74 99l22 -12l-83 -87h-13zM75 0v700h20l340 -646v646h21v-700h-16l-344 655v-655h-21z" />
    <glyph glyph-name="nacute" unicode="&#x144;" horiz-adv-x="430" 
d="M208 584l72 117l22 -11l-83 -106h-11zM67 0v516h21v-103q13 45 49.5 78t89.5 33q66 0 104 -49t38 -136v-339h-21v339q0 77 -32 121t-91 44q-56 0 -96.5 -48.5t-40.5 -120.5v-335h-21z" />
    <glyph glyph-name="Ncommaaccent" unicode="&#x145;" horiz-adv-x="531" 
d="M249 -176l-7 13q24 13 24 47h-13v50h30v-45q0 -49 -34 -65zM75 0v700h20l340 -646v646h21v-700h-16l-344 655v-655h-21z" />
    <glyph glyph-name="ncommaaccent" unicode="&#x146;" horiz-adv-x="430" 
d="M197 -176l-7 13q24 13 24 47h-13v50h30v-45q0 -49 -34 -65zM67 0v516h21v-103q13 45 49.5 78t89.5 33q66 0 104 -49t38 -136v-339h-21v339q0 77 -32 121t-91 44q-56 0 -96.5 -48.5t-40.5 -120.5v-335h-21z" />
    <glyph glyph-name="Ncaron" unicode="&#x147;" horiz-adv-x="531" 
d="M356 843l-80 -97h-16l-81 97h17l71 -74l72 74h17zM75 0v700h20l340 -646v646h21v-700h-16l-344 655v-655h-21z" />
    <glyph glyph-name="ncaron" unicode="&#x148;" horiz-adv-x="430" 
d="M303 707l-78 -119h-15l-78 119h16l70 -95l69 95h16zM67 0v516h21v-103q13 45 49.5 78t89.5 33q66 0 104 -49t38 -136v-339h-21v339q0 77 -32 121t-91 44q-56 0 -96.5 -48.5t-40.5 -120.5v-335h-21z" />
    <glyph glyph-name="Omacron" unicode="&#x14c;" horiz-adv-x="542" 
d="M174 769v19h194v-19h-194zM271 -9q-97 0 -158 96.5t-61 258.5v8q0 162 61 258.5t158 96.5t158 -96.5t61 -258.5v-8q0 -162 -61 -258.5t-158 -96.5zM271 11q87 0 142 92t55 242v9q0 149 -55.5 242t-141.5 93t-141.5 -92.5t-55.5 -241.5v-9q0 -149 55.5 -242t141.5 -93z
" />
    <glyph glyph-name="omacron" unicode="&#x14d;" horiz-adv-x="432" 
d="M124 599v19h185v-19h-185zM216 -8q-75 0 -124.5 73.5t-49.5 189.5v6q0 116 49.5 189.5t124.5 73.5t124.5 -73.5t49.5 -189.5v-6q0 -116 -49.5 -189.5t-124.5 -73.5zM216 12q65 0 108.5 69.5t43.5 173.5v6q0 104 -43.5 173.5t-108.5 69.5t-108.5 -69.5t-43.5 -173.5v-6
q0 -104 43.5 -173.5t108.5 -69.5z" />
    <glyph glyph-name="Obreve" unicode="&#x14e;" horiz-adv-x="542" 
d="M271 755q-43 0 -70 20.5t-33 59.5h17q14 -62 86 -62t86 62h17q-6 -39 -33 -59.5t-70 -20.5zM271 -9q-97 0 -158 96.5t-61 258.5v8q0 162 61 258.5t158 96.5t158 -96.5t61 -258.5v-8q0 -162 -61 -258.5t-158 -96.5zM271 11q87 0 142 92t55 242v9q0 149 -55.5 242
t-141.5 93t-141.5 -92.5t-55.5 -241.5v-9q0 -149 55.5 -242t141.5 -93z" />
    <glyph glyph-name="obreve" unicode="&#x14f;" horiz-adv-x="432" 
d="M216 -8q-75 0 -124.5 73.5t-49.5 189.5v6q0 116 49.5 189.5t124.5 73.5t124.5 -73.5t49.5 -189.5v-6q0 -116 -49.5 -189.5t-124.5 -73.5zM216 12q65 0 108.5 69.5t43.5 173.5v6q0 104 -43.5 173.5t-108.5 69.5t-108.5 -69.5t-43.5 -173.5v-6q0 -104 43.5 -173.5
t108.5 -69.5zM216 586q-43 0 -69 25.5t-32 69.5h18q5 -33 25.5 -55t57.5 -22t57.5 22t26.5 55h17q-6 -44 -32 -69.5t-69 -25.5z" />
    <glyph glyph-name="Ohungarumlaut" unicode="&#x150;" horiz-adv-x="542" 
d="M271 -9q-97 0 -158 96.5t-61 258.5v8q0 162 61 258.5t158 96.5t158 -96.5t61 -258.5v-8q0 -162 -61 -258.5t-158 -96.5zM271 11q87 0 142 92t55 242v9q0 149 -55.5 242t-141.5 93t-141.5 -92.5t-55.5 -241.5v-9q0 -149 55.5 -242t141.5 -93zM219 753l73 99l23 -12
l-84 -87h-12zM304 753l71 99l23 -12l-81 -87h-13z" />
    <glyph glyph-name="ohungarumlaut" unicode="&#x151;" horiz-adv-x="432" 
d="M249 584l71 117l23 -11l-83 -106h-11zM168 584l72 117l22 -11l-83 -106h-11zM216 -8q-75 0 -124.5 73.5t-49.5 189.5v6q0 116 49.5 189.5t124.5 73.5t124.5 -73.5t49.5 -189.5v-6q0 -116 -49.5 -189.5t-124.5 -73.5zM216 12q65 0 108.5 69.5t43.5 173.5v6
q0 104 -43.5 173.5t-108.5 69.5t-108.5 -69.5t-43.5 -173.5v-6q0 -104 43.5 -173.5t108.5 -69.5z" />
    <glyph glyph-name="OE" unicode="&#x152;" horiz-adv-x="740" 
d="M314 0q-117 0 -189.5 99t-72.5 247v8q0 163 74 254.5t188 91.5h379v-20h-281v-317h256v-20h-256v-323h285v-20h-383zM314 19h76v661h-77q-103 0 -171 -85.5t-68 -239.5v-9q0 -144 68.5 -235.5t171.5 -91.5z" />
    <glyph glyph-name="oe" unicode="&#x153;" horiz-adv-x="730" 
d="M216 -8q-75 0 -124.5 73.5t-49.5 189.5v6q0 116 49.5 189.5t124.5 73.5q58 0 102 -46t60 -124q16 81 58 125.5t96 44.5q70 0 113.5 -71t43.5 -186v-16h-300q1 -112 48 -175.5t115 -63.5q64 0 112 48l14 -17q-57 -51 -127 -51q-61 0 -108.5 45t-64.5 127
q-16 -80 -59.5 -126t-102.5 -46zM389 271h278q-1 99 -38 166t-97 67q-59 0 -99.5 -64t-43.5 -169zM216 12q65 0 108.5 69.5t43.5 173.5v6q0 104 -43.5 173.5t-108.5 69.5t-108.5 -69.5t-43.5 -173.5v-6q0 -104 43.5 -173.5t108.5 -69.5z" />
    <glyph glyph-name="Racute" unicode="&#x154;" horiz-adv-x="484" 
d="M75 0v700h130q113 0 172 -59q52 -52 52 -140q0 -165 -164 -199l173 -302h-25l-171 299q-27 -3 -57 -3h-88v-296h-22zM97 316h94q216 0 216 185q0 85 -54 132t-149 47h-107v-364zM215 748l74 99l22 -12l-83 -87h-13z" />
    <glyph glyph-name="racute" unicode="&#x155;" horiz-adv-x="243" 
d="M67 0v516h21v-108q15 49 51.5 82.5t89.5 32.5v-22h-3q-58 0 -98 -50.5t-40 -123.5v-327h-21zM126 581l72 117l22 -11l-83 -106h-11z" />
    <glyph glyph-name="Rcommaaccent" unicode="&#x156;" horiz-adv-x="484" 
d="M75 0v700h130q113 0 172 -59q52 -52 52 -140q0 -165 -164 -199l173 -302h-25l-171 299q-27 -3 -57 -3h-88v-296h-22zM97 316h94q216 0 216 185q0 85 -54 132t-149 47h-107v-364zM206 -176l-7 13q24 13 24 47h-13v50h30v-45q0 -49 -34 -65z" />
    <glyph glyph-name="rcommaaccent" unicode="&#x157;" horiz-adv-x="243" 
d="M67 0v516h21v-108q15 49 51.5 82.5t89.5 32.5v-22h-3q-58 0 -98 -50.5t-40 -123.5v-327h-21zM60 -177l-7 13q24 14 24 47h-13v50h30v-45q0 -49 -34 -65z" />
    <glyph glyph-name="Rcaron" unicode="&#x158;" horiz-adv-x="484" 
d="M75 0v700h130q113 0 172 -59q52 -52 52 -140q0 -165 -164 -199l173 -302h-25l-171 299q-27 -3 -57 -3h-88v-296h-22zM97 316h94q216 0 216 185q0 85 -54 132t-149 47h-107v-364zM314 848l-80 -97h-16l-81 97h17l71 -74l72 74h17z" />
    <glyph glyph-name="rcaron" unicode="&#x159;" horiz-adv-x="243" 
d="M67 0v516h21v-108q15 49 51.5 82.5t89.5 32.5v-22h-3q-58 0 -98 -50.5t-40 -123.5v-327h-21zM223 704l-78 -119h-15l-78 119h16l70 -95l69 95h16z" />
    <glyph glyph-name="Sacute" unicode="&#x15a;" horiz-adv-x="428" 
d="M209 -8q-108 0 -178 91l17 14q65 -85 162 -85q65 0 107.5 41.5t42.5 105.5v2q0 56 -32 98t-120 94q-84 50 -117.5 92.5t-33.5 104.5v2q0 66 47.5 111t117.5 45q87 0 152 -69l-15 -16q-61 65 -138 65q-62 0 -102 -39.5t-40 -95.5v-2q0 -58 31 -95.5t113 -87.5
q92 -56 125.5 -100.5t33.5 -104.5v-2q0 -74 -48.5 -121.5t-124.5 -47.5zM214 753l74 99l22 -12l-83 -87h-13z" />
    <glyph glyph-name="sacute" unicode="&#x15b;" horiz-adv-x="347" 
d="M171 584l72 117l22 -11l-83 -106h-11zM168 -6q-79 0 -143 61l14 15q59 -56 131 -56q51 0 84.5 31t33.5 75v1q0 42 -24.5 71t-96.5 66q-72 38 -98.5 70t-26.5 74v1q0 51 37 85.5t97 34.5q69 0 128 -54l-14 -15q-51 49 -115 49q-51 0 -81 -28.5t-30 -71.5v-1
q0 -37 24.5 -64t91.5 -63q76 -41 103 -73t27 -81v-1q0 -52 -40 -89t-102 -37z" />
    <glyph glyph-name="Scedilla" unicode="&#x15e;" horiz-adv-x="428" 
d="M209 -8q-108 0 -178 91l17 14q65 -85 162 -85q65 0 107.5 41.5t42.5 105.5v2q0 56 -32 98t-120 94q-84 50 -117.5 92.5t-33.5 104.5v2q0 66 47.5 111t117.5 45q87 0 152 -69l-15 -16q-61 65 -138 65q-62 0 -102 -39.5t-40 -95.5v-2q0 -58 31 -95.5t113 -87.5
q92 -56 125.5 -100.5t33.5 -104.5v-2q0 -69 -43 -116t-112 -52l-48 -107l-22 9l56 97h-4z" />
    <glyph glyph-name="scedilla" unicode="&#x15f;" horiz-adv-x="347" 
d="M168 -6q-79 0 -143 61l14 15q59 -56 131 -56q51 0 84.5 31t33.5 75v1q0 42 -24.5 71t-96.5 66q-72 38 -98.5 70t-26.5 74v1q0 51 37 85.5t97 34.5q69 0 128 -54l-14 -15q-51 49 -115 49q-51 0 -81 -28.5t-30 -71.5v-1q0 -37 24.5 -64t91.5 -63q76 -41 103 -73t27 -81v-1
q0 -49 -35 -84.5t-91 -40.5l-49 -109l-22 9l58 99h-3z" />
    <glyph glyph-name="Scaron" unicode="&#x160;" horiz-adv-x="428" 
d="M209 -8q-108 0 -178 91l17 14q65 -85 162 -85q65 0 107.5 41.5t42.5 105.5v2q0 56 -32 98t-120 94q-84 50 -117.5 92.5t-33.5 104.5v2q0 66 47.5 111t117.5 45q87 0 152 -69l-15 -16q-61 65 -138 65q-62 0 -102 -39.5t-40 -95.5v-2q0 -58 31 -95.5t113 -87.5
q92 -56 125.5 -100.5t33.5 -104.5v-2q0 -74 -48.5 -121.5t-124.5 -47.5zM313 853l-80 -97h-16l-81 97h17l71 -74l72 74h17z" />
    <glyph glyph-name="scaron" unicode="&#x161;" horiz-adv-x="347" 
d="M265 707l-78 -119h-15l-78 119h16l70 -95l69 95h16zM168 -6q-79 0 -143 61l14 15q59 -56 131 -56q51 0 84.5 31t33.5 75v1q0 42 -24.5 71t-96.5 66q-72 38 -98.5 70t-26.5 74v1q0 51 37 85.5t97 34.5q69 0 128 -54l-14 -15q-51 49 -115 49q-51 0 -81 -28.5t-30 -71.5v-1
q0 -37 24.5 -64t91.5 -63q76 -41 103 -73t27 -81v-1q0 -52 -40 -89t-102 -37z" />
    <glyph glyph-name="Tcommaaccent" unicode="&#x162;" horiz-adv-x="377" 
d="M170 -177l-7 13q24 14 24 47h-13v50h30v-45q0 -49 -34 -65zM178 0v680h-161v20h343v-20h-160v-680h-22z" />
    <glyph glyph-name="tcommaaccent" unicode="&#x163;" horiz-adv-x="252" 
d="M135 -178l-7 13q24 13 24 47h-13v50h30v-45q0 -49 -34 -65zM179 -5q-95 0 -95 104v398h-57v19h57v157h22v-157h112v-19h-112v-396q0 -86 73 -86q22 0 40 7v-20q-18 -7 -40 -7z" />
    <glyph glyph-name="Tcaron" unicode="&#x164;" horiz-adv-x="377" 
d="M278 848l-80 -97h-16l-81 97h17l71 -74l72 74h17zM178 0v680h-161v20h343v-20h-160v-680h-22z" />
    <glyph glyph-name="tcaron" unicode="&#x165;" horiz-adv-x="252" 
d="M185 565l10 148h22v-2l-23 -146h-9zM179 -5q-95 0 -95 104v398h-57v19h57v157h22v-157h112v-19h-112v-396q0 -86 73 -86q22 0 40 7v-20q-18 -7 -40 -7z" />
    <glyph glyph-name="Umacron" unicode="&#x16a;" horiz-adv-x="514" 
d="M159 759v19h194v-19h-194zM256 -8q-87 0 -137 60.5t-50 169.5v478h22v-478q0 -101 45 -155.5t121 -54.5q77 0 121.5 54t44.5 155v479h22v-478q0 -109 -50.5 -169.5t-138.5 -60.5z" />
    <glyph glyph-name="umacron" unicode="&#x16b;" horiz-adv-x="430" 
d="M203 -8q-66 0 -103.5 49t-37.5 136v339h21v-339q0 -77 32 -121t90 -44q56 0 96.5 48.5t40.5 120.5v335h21v-516h-21v103q-12 -45 -48.5 -78t-90.5 -33zM121 591v19h185v-19h-185z" />
    <glyph glyph-name="Ubreve" unicode="&#x16c;" horiz-adv-x="514" 
d="M256 742q-43 0 -70 20.5t-33 59.5h17q14 -62 86 -62t86 62h17q-6 -39 -33 -59.5t-70 -20.5zM256 -8q-87 0 -137 60.5t-50 169.5v478h22v-478q0 -101 45 -155.5t121 -54.5q77 0 121.5 54t44.5 155v479h22v-478q0 -109 -50.5 -169.5t-138.5 -60.5z" />
    <glyph glyph-name="ubreve" unicode="&#x16d;" horiz-adv-x="430" 
d="M203 -8q-66 0 -103.5 49t-37.5 136v339h21v-339q0 -77 32 -121t90 -44q56 0 96.5 48.5t40.5 120.5v335h21v-516h-21v103q-12 -45 -48.5 -78t-90.5 -33zM213 575q-43 0 -69 25.5t-32 69.5h18q5 -33 25.5 -55t57.5 -22t57.5 22t26.5 55h17q-6 -44 -32 -69.5t-69 -25.5z" />
    <glyph glyph-name="Uring" unicode="&#x16e;" horiz-adv-x="514" 
d="M256 -8q-87 0 -137 60.5t-50 169.5v478h22v-478q0 -101 45 -155.5t121 -54.5q77 0 121.5 54t44.5 155v479h22v-478q0 -109 -50.5 -169.5t-138.5 -60.5zM256 737q-35 0 -57.5 21.5t-22.5 52.5t22.5 53t57.5 22t57.5 -22t22.5 -53t-22.5 -52.5t-57.5 -21.5zM256 752
q28 0 46 17t18 42q0 26 -18 43t-46 17t-46 -17t-18 -43q0 -25 18 -42t46 -17z" />
    <glyph glyph-name="uring" unicode="&#x16f;" horiz-adv-x="430" 
d="M213 573q-33 0 -54.5 22t-21.5 55q0 32 21.5 54t54.5 22t54.5 -22t21.5 -54q0 -33 -21.5 -55t-54.5 -22zM213 587q27 0 44 18t17 45t-17 44.5t-44 17.5t-44 -17.5t-17 -44.5t17 -45t44 -18zM203 -8q-66 0 -103.5 49t-37.5 136v339h21v-339q0 -77 32 -121t90 -44
q56 0 96.5 48.5t40.5 120.5v335h21v-516h-21v103q-12 -45 -48.5 -78t-90.5 -33z" />
    <glyph glyph-name="Uhungarumlaut" unicode="&#x170;" horiz-adv-x="514" 
d="M256 -8q-87 0 -137 60.5t-50 169.5v478h22v-478q0 -101 45 -155.5t121 -54.5q77 0 121.5 54t44.5 155v479h22v-478q0 -109 -50.5 -169.5t-138.5 -60.5zM204 743l73 99l23 -12l-84 -87h-12zM289 743l71 99l23 -12l-81 -87h-13z" />
    <glyph glyph-name="uhungarumlaut" unicode="&#x171;" horiz-adv-x="430" 
d="M203 -8q-66 0 -103.5 49t-37.5 136v339h21v-339q0 -77 32 -121t90 -44q56 0 96.5 48.5t40.5 120.5v335h21v-516h-21v103q-12 -45 -48.5 -78t-90.5 -33zM245 576l71 117l23 -11l-83 -106h-11zM164 576l72 117l22 -11l-83 -106h-11z" />
    <glyph glyph-name="Uogonek" unicode="&#x172;" horiz-adv-x="514" 
d="M290 -106v-15q-6 -1 -12 -1q-31 0 -48 13t-17 34q0 30 35 67q-83 3 -131 63t-48 167v478h22v-478q0 -101 45 -155.5t121 -54.5q77 0 121.5 54t44.5 155v479h22v-478q0 -107 -48.5 -167t-132.5 -63q-30 -38 -30 -64q0 -33 56 -34z" />
    <glyph glyph-name="uogonek" unicode="&#x173;" horiz-adv-x="430" 
d="M203 -8q-66 0 -103.5 49t-37.5 136v339h21v-339q0 -77 32 -121t90 -44q56 0 96.5 48.5t40.5 120.5v335h21v-516h-4q-37 -43 -37 -72q0 -33 56 -34v-15q-6 -1 -12 -1q-31 0 -48 13t-17 34q0 34 43 75h-2v103q-12 -45 -48.5 -78t-90.5 -33z" />
    <glyph glyph-name="Wcircumflex" unicode="&#x174;" horiz-adv-x="734" 
d="M194 -5l-154 705h22l142 -661l154 662h18l154 -662l142 661h22l-154 -705h-20l-153 661l-153 -661h-20zM278 751l81 97h16l80 -97h-17l-72 75l-71 -75h-17z" />
    <glyph glyph-name="wcircumflex" unicode="&#x175;" horiz-adv-x="578" 
d="M203 582l78 119h15l78 -119h-16l-70 95l-69 -95h-16zM157 -3l-125 519h22l111 -475l116 476h16l116 -476l111 475h22l-125 -519h-17l-115 470l-115 -470h-17z" />
    <glyph glyph-name="Ycircumflex" unicode="&#x176;" horiz-adv-x="439" 
d="M209 0v299l-192 401h23l180 -379l180 379h23l-192 -401v-299h-22zM132 746l81 97h16l80 -97h-17l-72 75l-71 -75h-17z" />
    <glyph glyph-name="ycircumflex" unicode="&#x177;" horiz-adv-x="393" 
d="M198 42l145 474h22l-155 -506q-27 -89 -54.5 -120.5t-64.5 -31.5q-32 0 -60 19l10 19q25 -18 50 -18q30 0 52 27t45 104l-158 507h22zM112 580l78 119h15l78 -119h-16l-70 95l-69 -95h-16z" />
    <glyph glyph-name="Ydieresis" unicode="&#x178;" horiz-adv-x="439" 
d="M209 0v299l-192 401h23l180 -379l180 379h23l-192 -401v-299h-22zM254 756v41h29v-41h-29zM157 756v41h29v-41h-29z" />
    <glyph glyph-name="Zacute" unicode="&#x179;" horiz-adv-x="436" 
d="M44 0v15l320 665h-307v20h332v-15l-320 -665h319v-20h-344zM210 748l74 99l22 -12l-83 -87h-13z" />
    <glyph glyph-name="zacute" unicode="&#x17a;" horiz-adv-x="338" 
d="M164 581l72 117l22 -11l-83 -106h-11zM33 0v11l246 486h-235v19h260v-11l-246 -486h246v-19h-271z" />
    <glyph glyph-name="Zdotaccent" unicode="&#x17b;" horiz-adv-x="436" 
d="M204 761v41h30v-41h-30zM44 0v15l320 665h-307v20h332v-15l-320 -665h319v-20h-344z" />
    <glyph glyph-name="zdotaccent" unicode="&#x17c;" horiz-adv-x="338" 
d="M33 0v11l246 486h-235v19h260v-11l-246 -486h246v-19h-271zM158 593v40h29v-40h-29z" />
    <glyph glyph-name="Zcaron" unicode="&#x17d;" horiz-adv-x="436" 
d="M308 848l-80 -97h-16l-81 97h17l71 -74l72 74h17zM44 0v15l320 665h-307v20h332v-15l-320 -665h319v-20h-344z" />
    <glyph glyph-name="zcaron" unicode="&#x17e;" horiz-adv-x="338" 
d="M258 704l-78 -119h-15l-78 119h16l70 -95l69 95h16zM33 0v11l246 486h-235v19h260v-11l-246 -486h246v-19h-271z" />
    <glyph glyph-name="Aringacute" unicode="&#x1fa;" horiz-adv-x="511" 
d="M34 0l202 674q-28 6 -44.5 26t-16.5 47q0 31 22.5 52.5t57.5 21.5t58 -21.5t23 -52.5q0 -26 -17 -46t-45 -26l203 -675h-22l-63 211h-273l-63 -211h-22zM125 231h261l-130 438zM255 687q28 0 46 17.5t18 42.5t-18 42.5t-46 17.5q-27 0 -45.5 -17.5t-18.5 -42.5
t18.5 -42.5t45.5 -17.5zM246 847l68 80l22 -11l-76 -69h-14z" />
    <glyph glyph-name="aringacute" unicode="&#x1fb;" horiz-adv-x="397" 
d="M194 776l65 83l22 -11l-75 -72h-12zM171 -8q-60 0 -96.5 42t-36.5 115v2q0 77 41.5 121t116.5 44q59 0 119 -28v79q0 62 -31.5 98.5t-91.5 36.5q-58 0 -111 -33l-10 18q57 35 121 35q67 0 104 -37q40 -40 40 -114v-371h-21v100q-16 -46 -53 -77t-91 -31zM173 12
q60 0 101 50t41 114v91q-60 29 -119 29q-65 0 -100.5 -38t-35.5 -106v-3q0 -63 30.5 -100t82.5 -37zM202 588q-33 0 -54.5 22t-21.5 55q0 32 21.5 54t54.5 22t54.5 -22t21.5 -54q0 -33 -21.5 -55t-54.5 -22zM202 602q27 0 44 18t17 45t-17 44.5t-44 17.5t-44 -17.5
t-17 -44.5t17 -45t44 -18z" />
    <glyph glyph-name="AEacute" unicode="&#x1fc;" horiz-adv-x="662" 
d="M372 748l74 99l22 -12l-83 -87h-13zM6 0l281 700h328v-20h-281v-317h256v-20h-256v-323h285v-20h-307v211h-199l-84 -211h-23zM121 231h191v448h-12z" />
    <glyph glyph-name="aeacute" unicode="&#x1fd;" horiz-adv-x="672" 
d="M326 581l72 117l22 -11l-83 -106h-11zM174 -8q-62 0 -99 42t-37 115v2q0 77 41.5 121t116.5 44q61 0 117 -27q1 2 1.5 37.5t0.5 37.5q-1 67 -34.5 102.5t-95.5 35.5q-58 0 -106 -30l-10 19q57 31 117 31q62 0 101 -33t46 -95q21 62 59 96t84 34q71 0 113.5 -71t42.5 -186
v-16h-298q1 -111 48 -175t115 -64q64 0 112 48l14 -17q-57 -51 -127 -51q-52 0 -95 34t-66 96q-21 -57 -63.5 -93.5t-97.5 -36.5zM334 271h276q-1 99 -37.5 166t-96.5 67q-59 0 -99 -64t-43 -169zM176 12q50 0 89 36.5t62 102.5q-14 50 -14 116q-55 29 -117 29
q-65 0 -100.5 -38t-35.5 -106v-3q0 -63 31 -100t85 -37z" />
    <glyph glyph-name="Oslashacute" unicode="&#x1fe;" horiz-adv-x="542" 
d="M463 707h22l-55 -97q60 -96 60 -256v-8q0 -162 -61 -258.5t-158 -96.5q-89 0 -147 80l-45 -78h-22l54 97q-59 97 -59 256v8q0 162 61 258.5t158 96.5q87 0 147 -80zM271 11q87 0 142 92t55 242v9q0 140 -50 234l-283 -496q55 -81 136 -81zM74 346q0 -144 50 -235l282 496
q-54 82 -135 82q-87 0 -142 -92t-55 -242v-9zM262 753l74 99l22 -12l-83 -87h-13z" />
    <glyph glyph-name="oslashacute" unicode="&#x1ff;" horiz-adv-x="432" 
d="M361 523h21l-42 -71q50 -74 50 -191v-6q0 -116 -49.5 -189.5t-124.5 -73.5q-64 0 -111 56l-34 -55h-21l42 71q-50 74 -50 191v6q0 116 49.5 189.5t124.5 73.5q63 0 111 -56zM64 255q0 -102 41 -170l211 362q-41 57 -100 57q-65 0 -108.5 -69.5t-43.5 -173.5v-6zM216 12
q65 0 108.5 69.5t43.5 173.5v6q0 98 -41 169l-212 -361q43 -57 101 -57zM209 584l72 117l22 -11l-83 -106h-11z" />
    <glyph glyph-name="Scommaaccent" unicode="&#x218;" horiz-adv-x="428" 
d="M195 -179l-7 13q24 14 24 47h-13v50h30v-45q0 -49 -34 -65zM209 -8q-108 0 -178 91l17 14q65 -85 162 -85q65 0 107.5 41.5t42.5 105.5v2q0 56 -32 98t-120 94q-84 50 -117.5 92.5t-33.5 104.5v2q0 66 47.5 111t117.5 45q87 0 152 -69l-15 -16q-61 65 -138 65
q-62 0 -102 -39.5t-40 -95.5v-2q0 -58 31 -95.5t113 -87.5q92 -56 125.5 -100.5t33.5 -104.5v-2q0 -74 -48.5 -121.5t-124.5 -47.5z" />
    <glyph glyph-name="scommaaccent" unicode="&#x219;" horiz-adv-x="347" 
d="M159 -178l-7 13q24 13 24 47h-13v50h30v-45q0 -49 -34 -65zM168 -6q-79 0 -143 61l14 15q59 -56 131 -56q51 0 84.5 31t33.5 75v1q0 42 -24.5 71t-96.5 66q-72 38 -98.5 70t-26.5 74v1q0 51 37 85.5t97 34.5q69 0 128 -54l-14 -15q-51 49 -115 49q-51 0 -81 -28.5
t-30 -71.5v-1q0 -37 24.5 -64t91.5 -63q76 -41 103 -73t27 -81v-1q0 -52 -40 -89t-102 -37z" />
    <glyph glyph-name="schwa" unicode="&#x259;" horiz-adv-x="405" 
d="M174 523q77 0 128.5 -70t51.5 -193v-3q0 -123 -48 -194.5t-117 -71.5q-70 0 -113.5 71t-43.5 186v16h300q-1 111 -46.5 175t-112.5 64q-64 0 -116 -49l-14 15q59 54 131 54zM332 244h-278q1 -100 38 -166.5t98 -66.5q58 0 99 64.5t43 168.5z" />
    <glyph glyph-name="circumflex" unicode="&#x2c6;" 
d="M168 585l78 119h15l78 -119h-16l-70 95l-69 -95h-16z" />
    <glyph glyph-name="caron" unicode="&#x2c7;" 
d="M340 704l-78 -119h-15l-78 119h16l70 -95l69 95h16z" />
    <glyph glyph-name="breve" unicode="&#x2d8;" 
d="M254 583q-43 0 -69 25.5t-32 69.5h18q5 -33 25.5 -55t57.5 -22t57.5 22t26.5 55h17q-6 -44 -32 -69.5t-69 -25.5z" />
    <glyph glyph-name="dotaccent" unicode="&#x2d9;" 
d="M239 593v40h29v-40h-29z" />
    <glyph glyph-name="ring" unicode="&#x2da;" 
d="M254 588q-33 0 -54.5 22t-21.5 55q0 32 21.5 54t54.5 22t54.5 -22t21.5 -54q0 -33 -21.5 -55t-54.5 -22zM254 602q27 0 44 18t17 45t-17 44.5t-44 17.5t-44 -17.5t-17 -44.5t17 -45t44 -18z" />
    <glyph glyph-name="ogonek" unicode="&#x2db;" 
d="M297 -106v-15q-6 -1 -12 -1q-31 0 -48 13t-17 34q0 34 50 81l11 -3q-40 -46 -40 -75q0 -33 56 -34z" />
    <glyph glyph-name="tilde" unicode="&#x2dc;" 
d="M300 592q-20 0 -49 26q-32 27 -44 27q-25 0 -41 -55l-15 4q17 70 57 70q20 0 52 -30q28 -24 41 -24q25 0 41 56l15 -4q-17 -70 -57 -70z" />
    <glyph glyph-name="hungarumlaut" unicode="&#x2dd;" 
d="M243 581l71 117l23 -11l-83 -106h-11zM162 581l72 117l22 -11l-83 -106h-11z" />
    <glyph glyph-name="commaaccent" unicode="&#x326;" 
d="M238 -177l-7 13q24 14 24 47h-13v50h30v-45q0 -49 -34 -65z" />
    <glyph glyph-name="Wgrave" unicode="&#x1e80;" horiz-adv-x="734" 
d="M376 748h-13l-83 87l22 12zM194 -5l-154 705h22l142 -661l154 662h18l154 -662l142 661h22l-154 -705h-20l-153 661l-153 -661h-20z" />
    <glyph glyph-name="wgrave" unicode="&#x1e81;" horiz-adv-x="578" 
d="M157 -3l-125 519h22l111 -475l116 476h16l116 -476l111 475h22l-125 -519h-17l-115 470l-115 -470h-17zM287 581l-84 106l23 11l72 -117h-11z" />
    <glyph glyph-name="Wacute" unicode="&#x1e82;" horiz-adv-x="734" 
d="M358 748l74 99l22 -12l-83 -87h-13zM194 -5l-154 705h22l142 -661l154 662h18l154 -662l142 661h22l-154 -705h-20l-153 661l-153 -661h-20z" />
    <glyph glyph-name="wacute" unicode="&#x1e83;" horiz-adv-x="578" 
d="M281 581l72 117l22 -11l-83 -106h-11zM157 -3l-125 519h22l111 -475l116 476h16l116 -476l111 475h22l-125 -519h-17l-115 470l-115 -470h-17z" />
    <glyph glyph-name="Wdieresis" unicode="&#x1e84;" horiz-adv-x="734" 
d="M401 761v41h29v-41h-29zM304 761v41h29v-41h-29zM194 -5l-154 705h22l142 -661l154 662h18l154 -662l142 661h22l-154 -705h-20l-153 661l-153 -661h-20z" />
    <glyph glyph-name="wdieresis" unicode="&#x1e85;" horiz-adv-x="578" 
d="M320 593v40h29v-40h-29zM229 593v40h29v-40h-29zM157 -3l-125 519h22l111 -475l116 476h16l116 -476l111 475h22l-125 -519h-17l-115 470l-115 -470h-17z" />
    <glyph glyph-name="Ygrave" unicode="&#x1ef2;" horiz-adv-x="439" 
d="M209 0v299l-192 401h23l180 -379l180 379h23l-192 -401v-299h-22zM229 743h-13l-83 87l22 12z" />
    <glyph glyph-name="ygrave" unicode="&#x1ef3;" horiz-adv-x="393" 
d="M198 42l145 474h22l-155 -506q-27 -89 -54.5 -120.5t-64.5 -31.5q-32 0 -60 19l10 19q25 -18 50 -18q30 0 52 27t45 104l-158 507h22zM195 576l-84 106l23 11l72 -117h-11z" />
    <glyph glyph-name="enspace" unicode="&#x2002;" horiz-adv-x="500" 
 />
    <glyph glyph-name="emspace" unicode="&#x2003;" horiz-adv-x="1000" 
 />
    <glyph glyph-name="threeperemspace" unicode="&#x2004;" horiz-adv-x="333" 
 />
    <glyph glyph-name="fourperemspace" unicode="&#x2005;" horiz-adv-x="250" 
 />
    <glyph glyph-name="thinspace" unicode="&#x2009;" horiz-adv-x="110" 
 />
    <glyph glyph-name="hairspace" unicode="&#x200a;" horiz-adv-x="58" 
 />
    <glyph glyph-name="endash" unicode="&#x2013;" horiz-adv-x="438" 
d="M51 286v20h336v-20h-336z" />
    <glyph glyph-name="emdash" unicode="&#x2014;" horiz-adv-x="673" 
d="M51 286v20h571v-20h-571z" />
    <glyph glyph-name="quoteleft" unicode="&#x2018;" horiz-adv-x="117" 
d="M45 584v51q0 49 34 67l7 -13q-25 -14 -24 -54h13v-51h-30z" />
    <glyph glyph-name="quoteright" unicode="&#x2019;" horiz-adv-x="117" 
d="M39 583l-7 13q25 13 24 53h-14v51h31v-51q0 -50 -34 -66z" />
    <glyph glyph-name="quotesinglbase" unicode="&#x201a;" horiz-adv-x="117" 
d="M39 -67l-7 13q25 14 24 54h-14v51h31v-51q0 -49 -34 -67z" />
    <glyph glyph-name="quotedblleft" unicode="&#x201c;" horiz-adv-x="202" 
d="M129 584v51q0 49 34 67l7 -13q-25 -14 -24 -54h14v-51h-31zM45 584v51q0 49 34 67l7 -13q-25 -14 -24 -54h13v-51h-30z" />
    <glyph glyph-name="quotedblright" unicode="&#x201d;" horiz-adv-x="202" 
d="M123 583l-7 13q25 13 24 53h-13v51h30v-51q0 -50 -34 -66zM39 583l-7 13q25 13 24 53h-14v51h31v-51q0 -50 -34 -66z" />
    <glyph glyph-name="quotedblbase" unicode="&#x201e;" horiz-adv-x="202" 
d="M123 -67l-7 13q25 14 24 54h-13v51h30v-51q0 -49 -34 -67zM39 -67l-7 13q25 14 24 54h-14v51h31v-51q0 -49 -34 -67z" />
    <glyph glyph-name="dagger" unicode="&#x2020;" horiz-adv-x="293" 
d="M135 238l5 296l-96 -6v23l96 -5l-6 154h25l-6 -154l95 5v-23l-95 6l5 -296h-23z" />
    <glyph glyph-name="daggerdbl" unicode="&#x2021;" horiz-adv-x="293" 
d="M134 0l6 154l-96 -5v23l96 -6l-5 184l5 184l-96 -6v23l96 -5l-6 154h25l-6 -154l95 5v-23l-95 6l6 -184l-6 -184l95 6v-23l-95 5l6 -154h-25z" />
    <glyph glyph-name="bullet" unicode="&#x2022;" horiz-adv-x="345" 
d="M168 258q-34 0 -56 24.5t-22 66.5v10q0 42 22 66.5t56 24.5q36 0 57.5 -24t21.5 -67v-10q0 -43 -21.5 -67t-57.5 -24z" />
    <glyph glyph-name="ellipsis" unicode="&#x2026;" horiz-adv-x="377" 
d="M302 0v51h31v-51h-31zM173 0v51h31v-51h-31zM45 0v51h30v-51h-30z" />
    <glyph glyph-name="perthousand" unicode="&#x2030;" horiz-adv-x="871" 
d="M153 383q41 0 67.5 40t26.5 109v6q0 69 -27 109.5t-67 40.5q-41 0 -67.5 -40.5t-26.5 -108.5v-6q0 -69 27 -109.5t67 -40.5zM153 365q-50 0 -82 46.5t-32 121.5v6q0 74 32 120.5t82 46.5t82 -46.5t32 -120.5v-6q0 -75 -32 -121.5t-82 -46.5zM492 700l-191 -355l-185 -345
h-20l190 353l186 347h20zM435 12q41 0 67.5 40t26.5 109v6q0 69 -27 109.5t-67 40.5q-41 0 -67.5 -40.5t-26.5 -108.5v-6q0 -69 27 -109.5t67 -40.5zM435 -6q-50 0 -82 46.5t-32 120.5v6q0 75 32 121.5t82 46.5t82 -46.5t32 -121.5v-6q0 -74 -32 -120.5t-82 -46.5zM719 12
q41 0 67.5 40t26.5 109v6q0 70 -27 110t-68 40t-67.5 -40.5t-26.5 -108.5v-6q0 -69 27 -109.5t68 -40.5zM719 -6q-50 0 -82.5 46.5t-32.5 120.5v6q0 75 32 121.5t83 46.5q50 0 82 -46.5t32 -121.5v-6q0 -74 -32 -120.5t-82 -46.5z" />
    <glyph glyph-name="guilsinglleft" unicode="&#x2039;" horiz-adv-x="223" 
d="M163 46l-133 207v4l133 207l16 -9l-126 -199l126 -200z" />
    <glyph glyph-name="guilsinglright" unicode="&#x203a;" horiz-adv-x="223" 
d="M61 46l-16 10l126 200l-126 199l16 9l132 -207v-4z" />
    <glyph glyph-name="Euro" unicode="&#x20ac;" horiz-adv-x="471" 
d="M424 646l-15 -15q-48 55 -107 55q-71 0 -116.5 -62.5t-59.5 -176.5h208v-19h-211q-3 -34 -3 -72v-13q0 -32 3 -62h211v-19h-209q12 -121 58.5 -184.5t115.5 -63.5q64 0 114 59l14 -14q-56 -65 -129 -65q-74 0 -128 65.5t-67 202.5h-76v19h74q-2 20 -2 62v13q0 38 3 72
h-75v19h78q14 123 65.5 191t131.5 68q67 0 122 -60z" />
    <glyph glyph-name="published" unicode="&#x2117;" horiz-adv-x="619" 
d="M309 -11q-119 0 -195.5 101.5t-76.5 247.5v25q0 147 76.5 247.5t195.5 100.5q120 0 196.5 -100.5t76.5 -247.5v-25q0 -146 -77 -247.5t-196 -101.5zM309 6q113 0 184.5 96.5t71.5 235.5v25q0 139 -71.5 235.5t-184.5 96.5q-112 0 -183.5 -97t-71.5 -235v-25
q0 -139 71.5 -235.5t183.5 -96.5zM234 164v380h68q56 0 89 -31t33 -88v-2q0 -56 -33.5 -89t-89.5 -33h-47v-137h-20zM254 319h47q46 0 75 27.5t29 75.5v1q0 51 -28 77t-75 26h-48v-207z" />
    <glyph glyph-name="servicemark" unicode="&#x2120;" horiz-adv-x="484" 
d="M241 387v313h17l83 -191l82 191h17v-313h-15v280l-82 -189h-4l-83 189v-280h-15zM109 384q-52 0 -85 41l11 10q31 -37 74 -37q28 0 46 17.5t18 45.5q0 22 -14 39.5t-53 42.5t-54 42.5t-15 46.5q0 30 22 51t56 21q38 0 71 -29l-9 -12q-31 27 -63 27q-27 0 -44 -17t-17 -41
q0 -23 13.5 -39t47.5 -37q41 -26 57.5 -46.5t16.5 -47.5q0 -35 -21.5 -56.5t-57.5 -21.5z" />
    <glyph glyph-name="trademark" unicode="&#x2122;" horiz-adv-x="456" 
d="M213 387v313h17l83 -191l82 191h17v-313h-15v280l-82 -189h-4l-83 189v-280h-15zM81 387v299h-69v14h153v-14h-69v-299h-15z" />
    <glyph glyph-name="minus" unicode="&#x2212;" horiz-adv-x="420" 
d="M374 342h-328v20h328v-20z" />
    <glyph glyph-name="Q.alt" horiz-adv-x="549" 
d="M465 -84l-93 108q-44 -33 -101 -33q-97 0 -158 96.5t-61 258.5v8q0 162 61 258.5t158 96.5t158 -96.5t61 -258.5v-8q0 -215 -102 -309l104 -121h-27zM271 11q87 0 142 92t55 242v9q0 149 -55.5 242t-141.5 93t-141.5 -92.5t-55.5 -241.5v-9q0 -149 55.5 -242t141.5 -93z
" />
    <glyph glyph-name="a.alt" horiz-adv-x="446" 
d="M209 -8q-73 0 -119 74t-46 189v6q0 115 46 189t119 74q60 0 98 -44.5t51 -99.5v136h21v-516h-21v136q-13 -55 -51 -99.5t-98 -44.5zM210 12q65 0 107 70.5t42 172.5v6q0 102 -42 172.5t-107 70.5t-104.5 -69t-39.5 -174v-6q0 -105 39.5 -174t104.5 -69z" />
    <glyph glyph-name="aacute.alt" horiz-adv-x="446" 
d="M219 584l72 117l22 -11l-83 -106h-11zM209 -8q-73 0 -119 74t-46 189v6q0 115 46 189t119 74q60 0 98 -44.5t51 -99.5v136h21v-516h-21v136q-13 -55 -51 -99.5t-98 -44.5zM210 12q65 0 107 70.5t42 172.5v6q0 102 -42 172.5t-107 70.5t-104.5 -69t-39.5 -174v-6
q0 -105 39.5 -174t104.5 -69z" />
    <glyph glyph-name="abreve.alt" horiz-adv-x="446" 
d="M209 -8q-73 0 -119 74t-46 189v6q0 115 46 189t119 74q60 0 98 -44.5t51 -99.5v136h21v-516h-21v136q-13 -55 -51 -99.5t-98 -44.5zM210 12q65 0 107 70.5t42 172.5v6q0 102 -42 172.5t-107 70.5t-104.5 -69t-39.5 -174v-6q0 -105 39.5 -174t104.5 -69zM228 586
q-43 0 -69 25.5t-32 69.5h18q5 -33 25.5 -55t57.5 -22t57.5 22t26.5 55h17q-6 -44 -32 -69.5t-69 -25.5z" />
    <glyph glyph-name="acircumflex.alt" horiz-adv-x="446" 
d="M143 588l78 119h15l78 -119h-16l-70 95l-69 -95h-16zM209 -8q-73 0 -119 74t-46 189v6q0 115 46 189t119 74q60 0 98 -44.5t51 -99.5v136h21v-516h-21v136q-13 -55 -51 -99.5t-98 -44.5zM210 12q65 0 107 70.5t42 172.5v6q0 102 -42 172.5t-107 70.5t-104.5 -69
t-39.5 -174v-6q0 -105 39.5 -174t104.5 -69z" />
    <glyph glyph-name="adieresis.alt" horiz-adv-x="446" 
d="M259 596v40h29v-40h-29zM168 596v40h29v-40h-29zM209 -8q-73 0 -119 74t-46 189v6q0 115 46 189t119 74q60 0 98 -44.5t51 -99.5v136h21v-516h-21v136q-13 -55 -51 -99.5t-98 -44.5zM210 12q65 0 107 70.5t42 172.5v6q0 102 -42 172.5t-107 70.5t-104.5 -69t-39.5 -174
v-6q0 -105 39.5 -174t104.5 -69z" />
    <glyph glyph-name="agrave.alt" horiz-adv-x="446" 
d="M209 -8q-73 0 -119 74t-46 189v6q0 115 46 189t119 74q60 0 98 -44.5t51 -99.5v136h21v-516h-21v136q-13 -55 -51 -99.5t-98 -44.5zM210 12q65 0 107 70.5t42 172.5v6q0 102 -42 172.5t-107 70.5t-104.5 -69t-39.5 -174v-6q0 -105 39.5 -174t104.5 -69zM226 584l-84 106
l23 11l72 -117h-11z" />
    <glyph glyph-name="amacron.alt" horiz-adv-x="446" 
d="M209 -8q-73 0 -119 74t-46 189v6q0 115 46 189t119 74q60 0 98 -44.5t51 -99.5v136h21v-516h-21v136q-13 -55 -51 -99.5t-98 -44.5zM210 12q65 0 107 70.5t42 172.5v6q0 102 -42 172.5t-107 70.5t-104.5 -69t-39.5 -174v-6q0 -105 39.5 -174t104.5 -69zM136 599v19h185
v-19h-185z" />
    <glyph glyph-name="aogonek.alt" horiz-adv-x="446" 
d="M394 -106v-15q-6 -1 -12 -1q-31 0 -48 13t-17 34q0 34 43 75h-2v136q-13 -55 -51 -99.5t-98 -44.5q-73 0 -119 74t-46 189v6q0 115 46 189t119 74q60 0 98 -44.5t51 -99.5v136h21v-516h-4q-37 -43 -37 -72q0 -33 56 -34zM210 12q65 0 107 70.5t42 172.5v6
q0 102 -42 172.5t-107 70.5t-104.5 -69t-39.5 -174v-6q0 -105 39.5 -174t104.5 -69z" />
    <glyph glyph-name="aring.alt" horiz-adv-x="446" 
d="M228 591q-33 0 -54.5 22t-21.5 55q0 32 21.5 54t54.5 22t54.5 -22t21.5 -54q0 -33 -21.5 -55t-54.5 -22zM228 605q27 0 44 18t17 45t-17 44.5t-44 17.5t-44 -17.5t-17 -44.5t17 -45t44 -18zM209 -8q-73 0 -119 74t-46 189v6q0 115 46 189t119 74q60 0 98 -44.5t51 -99.5
v136h21v-516h-21v136q-13 -55 -51 -99.5t-98 -44.5zM210 12q65 0 107 70.5t42 172.5v6q0 102 -42 172.5t-107 70.5t-104.5 -69t-39.5 -174v-6q0 -105 39.5 -174t104.5 -69z" />
    <glyph glyph-name="aring.alt2" horiz-adv-x="397" 
d="M171 -8q-60 0 -96.5 42t-36.5 115v2q0 77 41.5 121t116.5 44q59 0 119 -28v79q0 62 -31.5 98.5t-91.5 36.5q-58 0 -111 -33l-10 18q41 25 90 33q-35 22 -35 65q0 32 21.5 54t54.5 22t54.5 -22t21.5 -54q0 -22 -11.5 -41t-29.5 -27q33 -8 59 -32q40 -40 40 -114v-371h-21
v100q-16 -46 -53 -77t-91 -31zM173 12q60 0 101 50t41 114v91q-60 29 -119 29q-65 0 -100.5 -38t-35.5 -106v-3q0 -63 30.5 -100t82.5 -37zM202 522q27 0 44 18t17 45t-17 44.5t-44 17.5t-44 -17.5t-17 -44.5t17 -45t44 -18z" />
    <glyph glyph-name="aringacute.alt" horiz-adv-x="446" 
d="M220 776l65 83l22 -11l-76 -72h-11zM228 588q-33 0 -54.5 22t-21.5 55q0 32 21.5 54t54.5 22t54.5 -22t21.5 -54q0 -33 -21.5 -55t-54.5 -22zM228 602q27 0 44 18t17 45t-17 44.5t-44 17.5t-44 -17.5t-17 -44.5t17 -45t44 -18zM209 -8q-73 0 -119 74t-46 189v6
q0 115 46 189t119 74q60 0 98 -44.5t51 -99.5v136h21v-516h-21v136q-13 -55 -51 -99.5t-98 -44.5zM210 12q65 0 107 70.5t42 172.5v6q0 102 -42 172.5t-107 70.5t-104.5 -69t-39.5 -174v-6q0 -105 39.5 -174t104.5 -69z" />
    <glyph glyph-name="aringacute.alt2" horiz-adv-x="397" 
d="M194 696l65 83l22 -11l-75 -72h-12zM171 -8q-60 0 -96.5 42t-36.5 115v2q0 77 41.5 121t116.5 44q59 0 119 -28v79q0 62 -31.5 98.5t-91.5 36.5q-58 0 -111 -33l-10 18q41 25 90 33q-35 22 -35 65q0 32 21.5 54t54.5 22t54.5 -22t21.5 -54q0 -22 -11.5 -41t-29.5 -27
q33 -8 59 -32q40 -40 40 -114v-371h-21v100q-16 -46 -53 -77t-91 -31zM173 12q60 0 101 50t41 114v91q-60 29 -119 29q-65 0 -100.5 -38t-35.5 -106v-3q0 -63 30.5 -100t82.5 -37zM202 522q27 0 44 18t17 45t-17 44.5t-44 17.5t-44 -17.5t-17 -44.5t17 -45t44 -18z" />
    <glyph glyph-name="atilde.alt" horiz-adv-x="446" 
d="M209 -8q-73 0 -119 74t-46 189v6q0 115 46 189t119 74q60 0 98 -44.5t51 -99.5v136h21v-516h-21v136q-13 -55 -51 -99.5t-98 -44.5zM210 12q65 0 107 70.5t42 172.5v6q0 102 -42 172.5t-107 70.5t-104.5 -69t-39.5 -174v-6q0 -105 39.5 -174t104.5 -69zM272 595
q-20 0 -49 26q-32 27 -44 27q-25 0 -41 -55l-15 4q17 70 57 70q20 0 52 -30q28 -24 41 -24q25 0 41 56l15 -4q-17 -70 -57 -70z" />
    <glyph glyph-name="three.alt" horiz-adv-x="376" 
d="M162 -9q-83 0 -144 67l15 15q54 -62 129 -62q67 0 110 47t43 120v1q0 75 -49 123.5t-130 48.5h-24v20h24q76 0 124 51t48 120v1q0 66 -37 106t-100 40q-73 0 -126 -63l-15 14q60 69 143 69q72 0 114.5 -46.5t42.5 -118.5v-1q0 -67 -38.5 -116t-97.5 -65
q62 -13 102.5 -61.5t40.5 -120.5v-1q0 -83 -49.5 -135.5t-125.5 -52.5z" />
    <glyph glyph-name="registered.alt" horiz-adv-x="619" 
d="M309 -11q-119 0 -195.5 101.5t-76.5 247.5v25q0 147 76.5 247.5t195.5 100.5q120 0 196.5 -100.5t76.5 -247.5v-25q0 -146 -77 -247.5t-196 -101.5zM309 6q113 0 184.5 96.5t71.5 235.5v25q0 139 -71.5 235.5t-184.5 96.5q-112 0 -183.5 -97t-71.5 -235v-25
q0 -139 71.5 -235.5t183.5 -96.5zM221 168v379h78q64 0 96 -38q23 -27 23 -73v-3q0 -39 -20 -66t-56 -37l84 -162h-22l-81 157q-15 -2 -45 -2h-37v-155h-20zM241 341h54q49 0 76 24.5t27 67.5v3q0 92 -100 92h-57v-187z" />
    <glyph glyph-name="NUL" horiz-adv-x="0" 
 />
    <glyph glyph-name="hfjslug" horiz-adv-x="702" 
d="M648 -200h-208l-8 14h-163l-8 -14h-207v303q14 0 23 9.5t9 22.5t-9.5 22.5t-22.5 9.5v554h100l30 79h334l29 -79h101v-921zM404 563v-172h15v78h38v14h-38v66h43v14h-58zM188 563v-172h15v79h47v-79h15v172h-15v-79h-47v79h-15zM464 394q10 -4 21 -4q31 0 31 36v137h-16
v-137q0 -22 -16 -22q-7 0 -20 5v-15zM375 465l-13 3q-4 -18 -8 -30h-1l-16 31q23 21 23 42q0 31 -27 31q-12 0 -20 -9t-8 -22t14 -39q-23 -18 -23 -47q0 -16 8 -26.5t21 -10.5q19 0 29 24h1l12 -24l12 6l-17 32q6 14 13 39zM527 323v-46h8v12l8 8l15 -20h10l-20 26l18 20
h-10l-20 -24h-1v24h-8zM492 292l10 -15h9l-12 17q10 4 10 14q0 15 -17 15h-20v-46h8v15h12zM430 276q10 0 17 7t7 17q0 9 -7 16.5t-17 7.5t-17 -7.5t-7 -16.5q0 -10 7 -17t17 -7zM374 301l-13 22h-9l18 -29v-17h8v17l18 29h-9zM197 323v-46h34v7h-26v13h23v7h-23v12h26v7
h-34zM136 323v-46h8v32l25 -32h7v46h-8v-32l-25 32h-7zM245 323l14 -47h8l11 34h1l11 -34h8l14 47h-8l-10 -35h-1l-11 35h-7l-11 -35h-1l-10 35h-8zM331 479q-12 22 -12 32q0 19 14 19q13 0 13 -19q0 -15 -15 -32zM346 423q-8 -21 -20 -21q-16 0 -16 25q0 19 16 35zM491 299
h-11v17h11q10 0 10 -8q0 -9 -10 -9zM430 283q-16 0 -16 17q0 6 4.5 11.5t11.5 5.5t11.5 -5.5t4.5 -11.5q0 -17 -16 -17z" />
    <glyph glyph-name="i.dot" horiz-adv-x="164" 
d="M69 648v57h26v-57h-26zM72 0v516h21v-516h-21z" />
    <glyph glyph-name="caron.alt" 
d="M221 565l10 148h22v-2l-23 -146h-9z" />
    <glyph glyph-name="acute.cap" 
d="M206 748l74 99l22 -12l-83 -87h-13z" />
    <glyph glyph-name="hungarumlaut.cap" 
d="M157 748l73 99l23 -12l-84 -87h-12zM242 748l71 99l23 -12l-81 -87h-13z" />
    <glyph glyph-name="grave.cap" 
d="M302 748h-13l-83 87l22 12z" />
    <glyph glyph-name="circumflex.cap" 
d="M165 751l81 97h16l80 -97h-17l-72 75l-71 -75h-17z" />
    <glyph glyph-name="caron.cap" 
d="M342 848l-80 -97h-16l-81 97h17l71 -74l72 74h17z" />
    <glyph glyph-name="breve.cap" 
d="M254 750q-43 0 -70 20.5t-33 59.5h17q14 -62 86 -62t86 62h17q-6 -39 -33 -59.5t-70 -20.5z" />
    <glyph glyph-name="tilde.cap" 
d="M306 757q-18 0 -53 23q-41 24 -49 24q-25 0 -41 -48l-15 4q17 62 57 62q19 0 57 -25q33 -21 45 -21q24 0 41 48l15 -4q-17 -63 -57 -63z" />
    <glyph glyph-name="macron.cap" 
d="M157 764v19h194v-19h-194z" />
    <glyph glyph-name="dieresis.cap" 
d="M288 761v41h29v-41h-29zM191 761v41h29v-41h-29z" />
    <glyph glyph-name="dotaccent.cap" 
d="M238 761v41h30v-41h-30z" />
    <glyph glyph-name="ring.cap" 
d="M254 752q-35 0 -57.5 21.5t-22.5 52.5t22.5 53t57.5 22t57.5 -22t22.5 -53t-22.5 -52.5t-57.5 -21.5zM254 767q28 0 46 17t18 42q0 26 -18 43t-46 17t-46 -17t-18 -43q0 -25 18 -42t46 -17z" />
    </font>
</defs>
</svg>
